<?xml version="1.0" encoding="UTF-8" standalone="no"?><!DOCTYPE svg PUBLIC "-//W3C//DTD SVG 1.1//EN" "http://www.w3.org/Graphics/SVG/1.1/DTD/svg11.dtd"><svg width="100%" height="100%" viewBox="0 0 151 132" version="1.1" xmlns="http://www.w3.org/2000/svg" xmlns:xlink="http://www.w3.org/1999/xlink" xml:space="preserve" xmlns:serif="http://www.serif.com/" style="fill-rule:evenodd;clip-rule:evenodd;stroke-linejoin:round;stroke-miterlimit:1.41421;"><path d="M53.795,69.963l0.085,0.001l0.086,0.001l0.087,0.002l0.088,0.002l0.088,0.003l0.088,0.003l0.09,0.003l0.09,0.004l0.091,0.004l0.091,0.005l0.092,0.005l0.092,0.005l0.094,0.006l0.093,0.007l0.095,0.006l0.095,0.007l0.095,0.008l0.097,0.008l0.096,0.008l0.098,0.009l0.098,0.009l0.098,0.009l0.1,0.01l0.099,0.01l0.101,0.01l0.101,0.011l0.101,0.011l0.102,0.012l0.102,0.012l0.104,0.012l0.103,0.012l0.104,0.013l0.105,0.013l0.105,0.014l0.106,0.014l0.106,0.014l0.106,0.015l0.108,0.015l0.107,0.015l0.108,0.015l0.109,0.016l0.109,0.016l0.109,0.017l0.11,0.016l0.111,0.017l0.111,0.018l0.111,0.017l0.112,0.018l0.112,0.019l0.112,0.018l0.113,0.019l0.114,0.019l0.113,0.019l0.115,0.02l0.114,0.02l0.115,0.02l0.115,0.02l0.116,0.021l0.116,0.021l0.116,0.021l0.117,0.022l0.117,0.021l0.117,0.022l0.118,0.023l0.236,0.045l0.238,0.046l0.238,0.047l0.24,0.048l0.241,0.049l0.242,0.049l0.242,0.051l0.244,0.051l0.244,0.052l0.245,0.053l0.246,0.054l0.247,0.054l0.247,0.056l0.248,0.055l0.248,0.057l0.249,0.057l0.249,0.058l0.249,0.058l0.249,0.059l0.25,0.059l0.25,0.06l0.25,0.061l0.25,0.06l0.25,0.062l0.25,0.062l0.25,0.062l0.25,0.063l0.249,0.063l0.249,0.063l0.249,0.064l0.248,0.063l0.248,0.065l0.247,0.064l0.247,0.065l0.246,0.065l0.245,0.065l0.245,0.065l0.243,0.066l0.243,0.065l0.242,0.066l0.241,0.066l0.24,0.065l0.239,0.066l0.237,0.066l0.237,0.066l0.235,0.066l0.234,0.065l0.232,0.066l0.231,0.066l0.229,0.065l0.228,0.065l0.226,0.065l0.225,0.065l0.223,0.065l0.221,0.064l0.219,0.065l0.217,0.063l0.216,0.064l0.213,0.063l0.211,0.063l0.209,0.063l0.207,0.062l0.204,0.062l0.203,0.061l0.2,0.061l0.197,0.06l0.195,0.06l0.193,0.059l0.189,0.059l0.188,0.058l0.184,0.058l0.182,0.057l0.179,0.056l0.176,0.056l0.173,0.055l0.17,0.054l0.167,0.054l0.164,0.053l0.161,0.052l0.157,0.051l0.155,0.051l0.151,0.049l0.147,0.049l0.145,0.048l0.14,0.047l0.138,0.046l0.133,0.045l0.13,0.044l0.127,0.044l0.122,0.042l0.119,0.041l0.117,0.041l0.025,0.009l0.026,0.01l0.026,0.01l0.026,0.01l0.025,0.01l0.026,0.011l0.025,0.011l0.025,0.011l0.025,0.012l0.028,0.013l0.046,0.023l0.049,0.025l0.047,0.027l0.047,0.027l0.046,0.027l0.045,0.029l0.044,0.029l0.044,0.03l0.043,0.031l0.042,0.031l0.041,0.032l0.04,0.033l0.04,0.033l0.039,0.034l0.038,0.034l0.038,0.035l0.036,0.035l0.036,0.036l0.036,0.036l0.034,0.036l0.034,0.037l0.034,0.037l0.032,0.038l0.032,0.038l0.032,0.038l0.03,0.039l0.03,0.039l0.03,0.039l0.029,0.04l0.028,0.039l0.028,0.04l0.028,0.04l0.026,0.041l0.027,0.041l0.025,0.04l0.026,0.041l0.024,0.041l0.025,0.042l0.023,0.042l0.024,0.041l0.023,0.043l0.022,0.042l0.022,0.042l0.021,0.042l0.022,0.043l0.02,0.043l0.02,0.042l0.02,0.043l0.02,0.043l0.019,0.043l0.018,0.043l0.019,0.044l0.018,0.043l0.017,0.043l0.017,0.044l0.017,0.043l0.016,0.044l0.016,0.043l0.016,0.044l0.015,0.044l0.015,0.044l0.015,0.043l0.014,0.044l0.014,0.044l0.014,0.044l0.013,0.043l0.013,0.044l0.013,0.044l0.012,0.043l0.012,0.044l0.012,0.044l0.012,0.043l0.011,0.043l0.011,0.044l0.01,0.043l0.01,0.043l0.01,0.044l0.01,0.042l0.009,0.044l0.009,0.043l0.009,0.042l0.008,0.043l0.008,0.042l0.008,0.043l0.008,0.042l0.007,0.042l0.007,0.043l0.007,0.042l0.006,0.041l0.006,0.042l0.006,0.041l0.006,0.042l0.005,0.041l0.005,0.04l0.005,0.041l0.005,0.041l0.004,0.04l0.004,0.04l0.004,0.04l0.003,0.04l0.003,0.04l0.003,0.039l0.003,0.04l0.002,0.038l0.002,0.039l0.002,0.039l0.001,0.038l0.001,0.038l0.001,0.038l0.001,0.038l0,0.037l0.001,0.037l-0.001,0.038l0,0.037l-0.001,0.036l-0.001,0.037l-0.002,0.036l-0.001,0.036l-0.002,0.036l-0.003,0.036l-0.002,0.036l-0.004,0.035l-0.003,0.037l-0.004,0.038l-0.005,0.039l-0.006,0.04l-0.006,0.038l-0.006,0.039l-0.008,0.038l-0.007,0.039l-0.008,0.037l-0.009,0.038l-0.009,0.038l-0.009,0.038l-0.01,0.037l-0.011,0.037l-0.01,0.037l-0.012,0.036l-0.011,0.037l-0.012,0.036l-0.013,0.037l-0.013,0.035l-0.013,0.036l-0.014,0.036l-0.014,0.036l-0.014,0.035l-0.015,0.035l-0.015,0.035l-0.016,0.035l-0.015,0.034l-0.017,0.035l-0.016,0.033l-0.017,0.034l-0.017,0.035l-0.018,0.033l-0.017,0.034l-0.019,0.033l-0.018,0.034l-0.019,0.033l-0.019,0.032l-0.019,0.033l-0.02,0.033l-0.02,0.032l-0.02,0.032l-0.021,0.032l-0.021,0.032l-0.021,0.032l-0.022,0.031l-0.021,0.031l-0.022,0.032l-0.023,0.031l-0.022,0.03l-0.023,0.031l-0.023,0.03l-0.024,0.031l-0.024,0.03l-0.024,0.03l-0.024,0.029l-0.024,0.029l-0.025,0.03l-0.025,0.029l-0.026,0.029l-0.025,0.028l-0.026,0.029l-0.026,0.028l-0.026,0.028l-0.027,0.028l-0.027,0.027l-0.027,0.028l-0.027,0.027l-0.028,0.027l-0.028,0.026l-0.028,0.027l-0.029,0.026l-0.028,0.026l-0.029,0.026l-0.029,0.025l-0.03,0.026l-0.029,0.025l-0.03,0.024l-0.03,0.025l-0.031,0.024l-0.03,0.024l-0.031,0.024l-0.032,0.023l-0.031,0.023l-0.031,0.023l-0.032,0.023l-0.032,0.022l-0.033,0.022l-0.033,0.021l-0.033,0.022l-0.033,0.021l-0.033,0.02l-0.034,0.021l-0.034,0.02l-0.034,0.02l-0.034,0.019l-0.035,0.019l-0.035,0.019l-0.035,0.018l-0.036,0.018l-0.036,0.017l-0.036,0.017l-0.036,0.017l-0.037,0.016l-0.037,0.016l-0.037,0.016l-0.038,0.015l-0.037,0.014l-0.038,0.014l-0.038,0.014l-0.039,0.013l-0.039,0.013l-0.039,0.012l-0.039,0.012l-0.04,0.011l-0.04,0.011l-0.04,0.01l-0.04,0.01l-0.041,0.009l-0.041,0.008l-0.041,0.008l-0.042,0.007l-0.041,0.007l-0.042,0.006l-0.043,0.005l-0.042,0.005l-0.043,0.004l-0.042,0.003l-0.041,0.002l-0.049,0.003l-0.047,0.002l-0.048,0.002l-0.049,0.001l-0.097,0.003l-0.1,0.003l-0.103,0.001l-0.105,0.001l-0.107,0l-0.11,0l-0.112,-0.001l-0.114,-0.001l-0.117,-0.002l-0.119,-0.003l-0.121,-0.003l-0.123,-0.003l-0.126,-0.004l-0.128,-0.005l-0.129,-0.005l-0.132,-0.005l-0.134,-0.006l-0.136,-0.007l-0.138,-0.007l-0.139,-0.007l-0.142,-0.008l-0.143,-0.008l-0.145,-0.009l-0.147,-0.008l-0.149,-0.01l-0.15,-0.009l-0.152,-0.011l-0.154,-0.01l-0.155,-0.011l-0.157,-0.011l-0.158,-0.011l-0.159,-0.012l-0.161,-0.012l-0.162,-0.012l-0.164,-0.013l-0.164,-0.013l-0.333,-0.026l-0.337,-0.028l-0.341,-0.028l-0.345,-0.03l-0.347,-0.03l-0.351,-0.03l-0.353,-0.032l-0.355,-0.032l-0.357,-0.032l-0.359,-0.033l-0.359,-0.033l-0.72,-0.066l-1.434,-0.134l-0.709,-0.065l-0.35,-0.032l-0.348,-0.032l-0.344,-0.031l-0.341,-0.031l-0.337,-0.03l-0.332,-0.029l-0.327,-0.028l-0.322,-0.028l-0.317,-0.026l-0.31,-0.025l-0.304,-0.024l-0.15,-0.012l-0.147,-0.011l-0.146,-0.011l-0.144,-0.011l-0.142,-0.01l-0.14,-0.01l-0.138,-0.009l-0.136,-0.009l-0.134,-0.009l-0.132,-0.009l-0.129,-0.008l-0.127,-0.007l-0.125,-0.007l-0.122,-0.007l-0.12,-0.006l-0.117,-0.006l-0.115,-0.005l-0.112,-0.005l-0.109,-0.004l-0.107,-0.004l-0.104,-0.004l-0.1,-0.003l-0.098,-0.002l-0.095,-0.002l-0.091,-0.001l-0.088,-0.001l-0.085,0l-0.081,0l-0.078,0.001l-0.071,0.001l-0.001,0l-0.001,0l-0.001,0l-0.001,0l-0.001,0.001l-0.002,0l-0.002,0l-0.003,0.001l-0.002,0.001l-0.003,0.001l-0.003,0.001l-0.004,0.001l-0.003,0.001l-0.005,0.002l-0.004,0.001l-0.005,0.002l-0.005,0.002l-0.005,0.002l-0.005,0.003l-0.006,0.003l-0.006,0.002l-0.006,0.004l-0.007,0.003l-0.006,0.003l-0.007,0.004l-0.007,0.004l-0.007,0.004l-0.007,0.005l-0.008,0.005l-0.008,0.005l-0.008,0.005l-0.008,0.005l-0.008,0.006l-0.009,0.006l-0.008,0.006l-0.009,0.006l-0.008,0.007l-0.009,0.006l-0.009,0.007l-0.009,0.008l-0.009,0.007l-0.009,0.007l-0.01,0.008l-0.01,0.009l-0.008,0.008l-0.01,0.008l-0.009,0.009l-0.01,0.009l-0.01,0.009l-0.009,0.009l-0.01,0.009l-0.009,0.009l-0.009,0.009l-0.02,0.021l-0.019,0.021l-0.02,0.021l-0.019,0.021l-0.018,0.022l-0.019,0.023l-0.018,0.023l-0.019,0.023l-0.018,0.024l-0.017,0.023l-0.017,0.024l-0.017,0.024l-0.016,0.025l-0.016,0.024l-0.016,0.024l-0.014,0.024l-0.015,0.024l-0.014,0.024l-0.013,0.024l-0.012,0.023l-0.012,0.023l-0.012,0.022l-0.01,0.022l-0.01,0.021l-0.009,0.021l-0.009,0.02l-0.008,0.019l-0.007,0.018l-0.006,0.016l-0.005,0.016l-0.005,0.015l-0.004,0.012l-0.004,0.014l-0.001,0.003l-0.001,0.004l0,0.003l-0.001,0.005l-0.001,0.003l-0.001,0.004l-0.001,0.004l-0.001,0.005l-0.001,0.006l0,0.004l-0.002,0.016l-0.002,0.015l-0.002,0.018l-0.002,0.019l-0.001,0.02l-0.001,0.021l-0.001,0.024l0,0.024l0,0.024l0,0.026l0.001,0.027l0.001,0.027l0.002,0.028l0.002,0.028l0.002,0.029l0.003,0.028l0.003,0.03l0.004,0.029l0.004,0.029l0.005,0.03l0.005,0.029l0.005,0.029l0.006,0.029l0.006,0.029l0.007,0.027l0.007,0.028l0.007,0.029l0.003,0.011l0.004,0.014l0.004,0.013l0.004,0.012l0.004,0.013l0.004,0.012l0.004,0.012l0.004,0.013l0.004,0.011l0.004,0.011l0.005,0.012l0.004,0.01l0.004,0.011l0.004,0.01l0.004,0.01l0.005,0.01l0.004,0.009l0.004,0.009l0.004,0.009l0.004,0.009l0.004,0.007l0.004,0.008l0.004,0.008l0.004,0.006l0.003,0.006l0.001,0.001l0.05,0.007l0.088,0.013l0.092,0.012l0.094,0.013l0.098,0.013l0.101,0.012l0.103,0.013l0.107,0.013l0.109,0.013l0.112,0.013l0.115,0.013l0.117,0.014l0.12,0.013l0.122,0.013l0.125,0.013l0.128,0.014l0.129,0.013l0.132,0.013l0.135,0.014l0.136,0.013l0.139,0.014l0.141,0.013l0.143,0.014l0.145,0.013l0.147,0.014l0.15,0.013l0.15,0.014l0.308,0.027l0.315,0.026l0.321,0.027l0.328,0.027l0.335,0.026l0.339,0.026l0.346,0.026l0.35,0.026l0.355,0.026l0.359,0.025l0.363,0.025l0.367,0.024l0.37,0.024l0.373,0.024l0.375,0.023l0.378,0.023l0.38,0.022l0.381,0.022l0.382,0.021l0.383,0.021l0.384,0.02l0.384,0.019l0.383,0.019l0.383,0.018l0.382,0.017l0.381,0.017l0.38,0.015l0.188,0.008l0.189,0.007l0.187,0.007l0.188,0.007l0.186,0.007l0.186,0.007l0.185,0.006l0.184,0.006l0.183,0.006l0.183,0.006l0.181,0.005l0.181,0.005l0.18,0.005l0.178,0.005l0.178,0.004l0.176,0.005l0.175,0.003l0.174,0.004l0.172,0.004l0.171,0.003l0.17,0.003l0.169,0.002l0.167,0.003l0.165,0.002l0.164,0.001l0.162,0.002l0.161,0.001l0.159,0.001l0.157,0.001l0.155,0l0.154,0l0.151,0l0.15,-0.001l0.148,-0.001l0.146,-0.001l0.143,-0.001l0.142,-0.002l0.139,-0.002l0.137,-0.003l0.135,-0.002l0.133,-0.003l0.13,-0.004l0.128,-0.004l0.125,-0.004l0.123,-0.004l0.119,-0.005l0.079,-0.003l0.079,-0.005l0.081,-0.004l0.081,-0.006l0.082,-0.005l0.083,-0.007l0.083,-0.007l0.085,-0.008l0.085,-0.008l0.087,-0.008l0.087,-0.01l0.087,-0.01l0.089,-0.01l0.089,-0.011l0.09,-0.011l0.09,-0.012l0.091,-0.012l0.092,-0.013l0.092,-0.013l0.093,-0.014l0.093,-0.014l0.094,-0.015l0.094,-0.015l0.095,-0.016l0.095,-0.016l0.096,-0.016l0.096,-0.017l0.096,-0.017l0.097,-0.018l0.097,-0.018l0.097,-0.018l0.097,-0.019l0.098,-0.019l0.098,-0.019l0.098,-0.019l0.099,-0.02l0.098,-0.021l0.099,-0.02l0.099,-0.021l0.098,-0.021l0.099,-0.022l0.099,-0.021l0.1,-0.022l0.099,-0.022l0.099,-0.023l0.099,-0.022l0.099,-0.023l0.099,-0.023l0.098,-0.023l0.099,-0.024l0.099,-0.023l0.098,-0.024l0.098,-0.024l0.098,-0.024l0.196,-0.048l0.194,-0.049l0.194,-0.049l0.192,-0.05l0.19,-0.05l0.189,-0.049l0.187,-0.05l0.185,-0.05l0.183,-0.05l0.18,-0.05l0.178,-0.049l0.176,-0.049l0.172,-0.049l0.17,-0.048l0.167,-0.047l0.163,-0.047l0.16,-0.047l0.157,-0.045l0.153,-0.045l0.294,-0.086l0.277,-0.082l0.26,-0.077l0.241,-0.071l0.222,-0.065l0.2,-0.059l0.093,-0.027l0.087,-0.025l0.082,-0.023l0.077,-0.021l0.072,-0.02l0.064,-0.017l0.144,-0.037l0.144,-0.037l0.147,-0.039l0.15,-0.039l0.154,-0.041l0.156,-0.042l0.16,-0.043l0.163,-0.044l0.165,-0.046l0.169,-0.046l0.171,-0.047l0.174,-0.048l0.176,-0.049l0.179,-0.05l0.182,-0.051l0.184,-0.052l0.375,-0.107l0.385,-0.109l0.393,-0.113l0.402,-0.115l0.41,-0.119l0.417,-0.121l0.424,-0.123l0.43,-0.126l0.437,-0.128l0.442,-0.129l0.9,-0.264l0.917,-0.27l0.931,-0.274l0.941,-0.276l0.473,-0.139l0.474,-0.139l0.476,-0.139l0.475,-0.139l0.476,-0.139l0.475,-0.138l0.474,-0.137l0.473,-0.136l0.471,-0.136l0.468,-0.134l0.466,-0.133l0.463,-0.131l0.459,-0.13l0.229,-0.064l0.227,-0.064l0.226,-0.063l0.225,-0.062l0.223,-0.063l0.223,-0.061l0.221,-0.061l0.219,-0.06l0.219,-0.06l0.217,-0.059l0.215,-0.058l0.214,-0.058l0.212,-0.056l0.21,-0.056l0.209,-0.056l0.207,-0.054l0.205,-0.054l0.203,-0.053l0.201,-0.052l0.199,-0.051l0.197,-0.051l0.195,-0.049l0.193,-0.049l0.191,-0.047l0.188,-0.047l0.187,-0.045l0.183,-0.045l0.182,-0.043l0.179,-0.043l0.176,-0.041l0.174,-0.04l0.171,-0.039l0.169,-0.038l0.166,-0.037l0.164,-0.036l0.16,-0.035l0.158,-0.033l0.155,-0.032l0.152,-0.031l0.149,-0.029l0.146,-0.028l0.073,-0.014l0.071,-0.013l0.071,-0.013l0.07,-0.013l0.069,-0.012l0.068,-0.012l0.068,-0.011l0.066,-0.012l0.066,-0.011l0.066,-0.01l0.064,-0.01l0.064,-0.01l0.063,-0.009l0.063,-0.009l0.061,-0.009l0.061,-0.009l0.06,-0.007l0.062,-0.008l0.027,-0.004l0.031,-0.003l0.03,-0.002l0.03,-0.003l0.031,-0.001l0.03,-0.002l0.031,-0.001l0.03,0l0.03,0l0.031,0.001l0.03,0.001l0.03,0.001l0.031,0.002l0.03,0.002l0.03,0.003l0.029,0.003l0.03,0.004l0.03,0.004l0.029,0.005l0.03,0.005l0.029,0.005l0.029,0.006l0.029,0.006l0.029,0.007l0.029,0.007l0.029,0.008l0.027,0.008l0.028,0.008l0.029,0.009l0.027,0.009l0.027,0.009l0.027,0.01l0.027,0.01l0.027,0.011l0.026,0.01l0.026,0.011l0.026,0.012l0.026,0.012l0.025,0.012l0.026,0.012l0.024,0.013l0.025,0.013l0.024,0.013l0.024,0.013l0.024,0.014l0.023,0.014l0.024,0.014l0.026,0.016l0.042,0.027l0.044,0.03l0.043,0.031l0.042,0.032l0.041,0.032l0.04,0.033l0.039,0.034l0.038,0.034l0.038,0.034l0.036,0.035l0.035,0.035l0.035,0.036l0.034,0.037l0.033,0.036l0.032,0.037l0.032,0.037l0.031,0.038l0.03,0.038l0.03,0.038l0.028,0.038l0.028,0.039l0.028,0.039l0.027,0.039l0.027,0.039l0.026,0.039l0.025,0.04l0.025,0.04l0.025,0.04l0.024,0.04l0.023,0.041l0.023,0.04l0.023,0.041l0.022,0.041l0.022,0.041l0.021,0.041l0.021,0.041l0.021,0.041l0.02,0.042l0.02,0.041l0.02,0.042l0.019,0.042l0.019,0.041l0.018,0.042l0.019,0.042l0.017,0.042l0.018,0.042l0.017,0.042l0.017,0.042l0.017,0.043l0.016,0.042l0.017,0.042l0.015,0.042l0.016,0.042l0.015,0.042l0.015,0.042l0.015,0.042l0.015,0.042l0.014,0.042l0.014,0.042l0.014,0.043l0.027,0.082l0.026,0.083l0.025,0.083l0.024,0.082l0.023,0.081l0.023,0.081l0.021,0.08l0.021,0.079l0.02,0.078l0.019,0.077l0.019,0.076l0.018,0.075l0.017,0.074l0.016,0.072l0.016,0.071l0.015,0.07l0.014,0.068l0.013,0.066l0.013,0.064l0.013,0.063l0.012,0.061l0.011,0.059l0.011,0.062l0.011,0.064l0.011,0.065l0.01,0.066l0.01,0.067l0.009,0.067l0.009,0.068l0.009,0.07l0.007,0.069l0.008,0.07l0.006,0.071l0.006,0.072l0.006,0.072l0.004,0.073l0.004,0.073l0.004,0.074l0.002,0.074l0.002,0.074l0.001,0.075l0.001,0.075l0,0.039l-0.001,0.038l0,0.038l-0.001,0.037l-0.001,0.039l-0.001,0.038l-0.002,0.038l-0.002,0.039l-0.002,0.038l-0.002,0.039l-0.002,0.038l-0.003,0.039l-0.003,0.038l-0.003,0.039l-0.004,0.039l-0.003,0.038l-0.005,0.04l-0.004,0.038l-0.005,0.039l-0.005,0.039l-0.005,0.039l-0.005,0.039l-0.006,0.039l-0.006,0.039l-0.007,0.039l-0.007,0.039l-0.007,0.039l-0.007,0.039l-0.008,0.039l-0.009,0.039l-0.008,0.039l-0.009,0.04l-0.01,0.038l-0.01,0.039l-0.01,0.039l-0.01,0.039l-0.011,0.039l-0.012,0.039l-0.012,0.039l-0.012,0.039l-0.013,0.039l-0.014,0.039l-0.013,0.039l-0.015,0.039l-0.014,0.038l-0.016,0.039l-0.016,0.038l-0.016,0.039l-0.017,0.038l-0.018,0.038l-0.018,0.039l-0.019,0.038l-0.019,0.038l-0.021,0.038l-0.02,0.037l-0.021,0.038l-0.023,0.037l-0.022,0.037l-0.024,0.037l-0.024,0.037l-0.025,0.037l-0.025,0.036l-0.027,0.036l-0.027,0.036l-0.028,0.035l-0.028,0.035l-0.03,0.035l-0.03,0.034l-0.031,0.034l-0.032,0.034l-0.033,0.033l-0.033,0.032l-0.035,0.032l-0.035,0.032l-0.036,0.031l-0.037,0.03l-0.037,0.03l-0.038,0.029l-0.04,0.028l-0.039,0.027l-0.041,0.027l-0.041,0.026l-0.042,0.025l-0.043,0.025l-0.043,0.023l-0.044,0.023l-0.045,0.021l-0.041,0.019l-0.088,0.039l-0.087,0.038l-0.088,0.039l-0.09,0.039l-0.092,0.04l-0.094,0.04l-0.096,0.041l-0.097,0.041l-0.1,0.043l-0.101,0.042l-0.104,0.043l-0.105,0.044l-0.216,0.089l-0.223,0.092l-0.23,0.094l-0.237,0.096l-0.245,0.098l-0.25,0.1l-0.258,0.102l-0.264,0.104l-0.27,0.106l-0.276,0.108l-0.283,0.11l-0.288,0.112l-0.295,0.113l-0.3,0.116l-0.305,0.117l-0.311,0.118l-0.317,0.121l-0.321,0.122l-0.326,0.123l-0.331,0.125l-0.336,0.126l-0.341,0.128l-0.345,0.129l-0.349,0.131l-0.354,0.131l-0.357,0.133l-0.362,0.134l-0.365,0.136l-0.368,0.136l-0.373,0.137l-0.375,0.139l-0.379,0.139l-0.382,0.14l-0.384,0.141l-0.388,0.142l-0.39,0.143l-0.787,0.287l-0.797,0.29l-0.804,0.293l-0.81,0.293l-0.817,0.296l-0.82,0.296l-0.824,0.298l-0.826,0.297l-0.827,0.298l-0.826,0.297l-0.826,0.296l-0.823,0.295l-0.819,0.294l-1.624,0.582l-1.596,0.571l-1.56,0.558l-1.514,0.542l-1.459,0.523l-0.707,0.253l-0.689,0.248l-0.671,0.241l-0.651,0.235l-0.632,0.227l-0.609,0.22l-0.587,0.213l-0.563,0.204l-0.538,0.196l-0.512,0.187l-0.245,0.09l-0.239,0.088l-0.231,0.086l-0.224,0.082l-0.217,0.081l-0.209,0.078l-0.202,0.075l-0.193,0.072l-0.186,0.07l-0.177,0.067l-0.169,0.065l-0.16,0.061l-0.152,0.058l-0.142,0.056l-0.134,0.052l-0.124,0.049l-0.114,0.046l-0.105,0.043l-0.094,0.039l-0.043,0.018l-0.045,0.019l-0.027,0.011l-0.031,0.012l-0.032,0.013l-0.032,0.011l-0.031,0.011l-0.032,0.011l-0.031,0.01l-0.032,0.01l-0.032,0.009l-0.031,0.009l-0.032,0.009l-0.032,0.008l-0.032,0.008l-0.032,0.008l-0.032,0.007l-0.033,0.007l-0.032,0.007l-0.033,0.007l-0.032,0.006l-0.033,0.006l-0.033,0.006l-0.034,0.006l-0.033,0.005l-0.033,0.005l-0.034,0.005l-0.036,0.005l-0.067,0.009l-0.07,0.009l-0.07,0.007l-0.072,0.007l-0.072,0.007l-0.074,0.005l-0.074,0.006l-0.076,0.004l-0.077,0.004l-0.078,0.004l-0.079,0.003l-0.08,0.002l-0.081,0.002l-0.083,0.002l-0.083,0.001l-0.085,0l-0.086,0l-0.087,0l-0.089,-0.001l-0.089,-0.001l-0.091,-0.002l-0.092,-0.002l-0.093,-0.003l-0.094,-0.003l-0.095,-0.003l-0.097,-0.004l-0.097,-0.004l-0.099,-0.005l-0.1,-0.005l-0.102,-0.006l-0.102,-0.006l-0.103,-0.006l-0.105,-0.007l-0.105,-0.007l-0.107,-0.007l-0.108,-0.008l-0.109,-0.008l-0.11,-0.008l-0.111,-0.009l-0.112,-0.009l-0.114,-0.01l-0.114,-0.01l-0.115,-0.01l-0.117,-0.011l-0.117,-0.011l-0.119,-0.011l-0.119,-0.011l-0.121,-0.012l-0.121,-0.013l-0.123,-0.012l-0.123,-0.013l-0.124,-0.013l-0.126,-0.013l-0.126,-0.014l-0.127,-0.014l-0.128,-0.015l-0.13,-0.014l-0.26,-0.03l-0.264,-0.032l-0.268,-0.032l-0.271,-0.033l-0.274,-0.035l-0.277,-0.035l-0.281,-0.036l-0.283,-0.038l-0.287,-0.038l-0.289,-0.039l-0.292,-0.04l-0.295,-0.041l-0.297,-0.041l-0.3,-0.042l-0.302,-0.043l-0.304,-0.044l-0.306,-0.045l-0.309,-0.045l-0.311,-0.045l-0.312,-0.047l-0.315,-0.047l-0.316,-0.047l-0.317,-0.048l-0.32,-0.048l-0.321,-0.049l-0.322,-0.049l-0.323,-0.05l-0.651,-0.1l-0.654,-0.101l-0.658,-0.103l-0.66,-0.103l-0.662,-0.103l-1.327,-0.208l-0.663,-0.104l-0.662,-0.103l-0.66,-0.103l-0.658,-0.101l-0.654,-0.101l-0.325,-0.05l-0.325,-0.049l-0.323,-0.049l-0.322,-0.049l-0.32,-0.048l-0.319,-0.047l-0.317,-0.047l-0.316,-0.047l-0.314,-0.046l-0.312,-0.045l-0.31,-0.045l-0.307,-0.044l-0.306,-0.043l-0.304,-0.043l-0.301,-0.042l-0.298,-0.041l-0.296,-0.04l-0.294,-0.04l-0.29,-0.038l-0.288,-0.038l-0.285,-0.037l-0.282,-0.035l-0.279,-0.035l-0.275,-0.034l-0.272,-0.033l-0.269,-0.031l-0.265,-0.031l-0.131,-0.015l-0.131,-0.014l-0.129,-0.015l-0.128,-0.014l-0.128,-0.013l-0.126,-0.014l-0.126,-0.013l-0.124,-0.013l-0.124,-0.012l-0.122,-0.012l-0.121,-0.012l-0.121,-0.011l-0.119,-0.012l-0.118,-0.01l-0.117,-0.011l-0.116,-0.01l-0.115,-0.01l-0.114,-0.009l-0.113,-0.01l-0.111,-0.008l-0.11,-0.009l-0.109,-0.008l-0.108,-0.008l-0.107,-0.007l-0.105,-0.007l-0.104,-0.007l-0.103,-0.006l-0.102,-0.006l-0.1,-0.005l-0.099,-0.005l-0.069,-0.004l-0.071,-0.003l-0.07,-0.003l-0.071,-0.003l-0.072,-0.003l-0.073,-0.002l-0.073,-0.003l-0.073,-0.002l-0.149,-0.004l-0.151,-0.003l-0.153,-0.003l-0.155,-0.002l-0.158,-0.002l-0.159,-0.001l-0.161,0l-0.162,0l-0.165,0.001l-0.166,0.001l-0.167,0.002l-0.17,0.003l-0.171,0.002l-0.172,0.004l-0.173,0.004l-0.175,0.004l-0.177,0.005l-0.177,0.006l-0.178,0.006l-0.18,0.006l-0.181,0.007l-0.182,0.007l-0.182,0.008l-0.184,0.008l-0.184,0.009l-0.185,0.009l-0.186,0.009l-0.187,0.01l-0.187,0.01l-0.188,0.011l-0.188,0.011l-0.188,0.011l-0.189,0.011l-0.19,0.012l-0.189,0.012l-0.19,0.013l-0.19,0.013l-0.191,0.013l-0.19,0.013l-0.19,0.014l-0.19,0.014l-0.19,0.014l-0.19,0.014l-0.19,0.015l-0.19,0.015l-0.189,0.015l-0.189,0.015l-0.188,0.016l-0.188,0.015l-0.187,0.016l-0.187,0.016l-0.186,0.016l-0.186,0.016l-0.185,0.017l-0.184,0.016l-0.183,0.017l-0.364,0.033l-0.359,0.034l-0.355,0.034l-0.351,0.034l-0.345,0.034l-0.339,0.034l-0.333,0.034l-0.327,0.034l-0.32,0.034l-0.312,0.033l-0.304,0.033l-0.297,0.032l-0.287,0.032l-0.279,0.031l-0.269,0.031l-0.259,0.029l-0.248,0.029l-0.238,0.028l-0.227,0.026l-0.215,0.026l-0.203,0.024l-0.191,0.023l-0.342,0.042l-0.287,0.036l-0.229,0.028l-0.167,0.022l-0.139,0.017l-0.389,-0.026l-0.349,-0.174l-0.257,-0.294l-0.124,-0.369l0.026,-0.39l0.174,-0.349l0.294,-0.257l0.369,-0.124l0.14,-0.018l0.171,-0.022l0.232,-0.029l0.291,-0.036l0.346,-0.042l0.192,-0.024l0.205,-0.024l0.218,-0.026l0.228,-0.027l0.24,-0.028l0.251,-0.029l0.262,-0.029l0.271,-0.031l0.281,-0.032l0.29,-0.032l0.299,-0.032l0.307,-0.034l0.315,-0.033l0.322,-0.034l0.33,-0.034l0.336,-0.035l0.343,-0.034l0.348,-0.035l0.354,-0.034l0.358,-0.034l0.364,-0.034l0.367,-0.034l0.185,-0.017l0.186,-0.017l0.187,-0.016l0.187,-0.017l0.189,-0.016l0.189,-0.016l0.189,-0.016l0.191,-0.016l0.19,-0.015l0.192,-0.016l0.191,-0.015l0.192,-0.015l0.192,-0.015l0.193,-0.014l0.193,-0.015l0.192,-0.014l0.193,-0.014l0.194,-0.013l0.193,-0.014l0.193,-0.013l0.192,-0.012l0.193,-0.013l0.193,-0.012l0.192,-0.012l0.192,-0.011l0.192,-0.011l0.191,-0.011l0.191,-0.01l0.19,-0.01l0.19,-0.01l0.189,-0.009l0.188,-0.009l0.188,-0.008l0.187,-0.008l0.186,-0.007l0.185,-0.007l0.185,-0.007l0.183,-0.006l0.182,-0.006l0.182,-0.005l0.18,-0.005l0.179,-0.004l0.178,-0.003l0.177,-0.003l0.175,-0.003l0.174,-0.002l0.173,-0.001l0.171,-0.001l0.17,0l0.168,0l0.166,0.001l0.165,0.002l0.164,0.002l0.161,0.003l0.16,0.004l0.158,0.004l0.079,0.002l0.078,0.003l0.077,0.003l0.077,0.003l0.076,0.003l0.076,0.003l0.076,0.004l0.075,0.003l0.105,0.006l0.107,0.005l0.107,0.007l0.109,0.006l0.109,0.007l0.111,0.008l0.112,0.007l0.113,0.008l0.114,0.009l0.115,0.009l0.116,0.009l0.117,0.009l0.118,0.01l0.119,0.01l0.12,0.011l0.121,0.011l0.123,0.011l0.123,0.011l0.124,0.012l0.125,0.012l0.125,0.013l0.127,0.013l0.128,0.013l0.129,0.013l0.129,0.014l0.131,0.014l0.131,0.014l0.132,0.015l0.133,0.015l0.135,0.015l0.27,0.031l0.273,0.032l0.277,0.034l0.28,0.034l0.283,0.035l0.286,0.037l0.288,0.037l0.292,0.038l0.294,0.039l0.297,0.04l0.299,0.041l0.301,0.041l0.304,0.042l0.306,0.043l0.309,0.044l0.31,0.044l0.312,0.045l0.314,0.046l0.316,0.046l0.317,0.047l0.319,0.048l0.321,0.047l0.322,0.049l0.323,0.049l0.325,0.049l0.325,0.049l0.327,0.05l0.656,0.101l0.659,0.102l0.662,0.103l0.662,0.103l0.664,0.104l1.327,0.208l0.662,0.103l0.659,0.103l0.657,0.102l0.653,0.102l0.648,0.1l0.323,0.049l0.321,0.049l0.319,0.049l0.318,0.048l0.317,0.047l0.314,0.047l0.313,0.047l0.31,0.046l0.309,0.045l0.307,0.045l0.304,0.044l0.302,0.044l0.299,0.042l0.297,0.042l0.295,0.041l0.291,0.041l0.289,0.039l0.286,0.039l0.283,0.038l0.28,0.036l0.277,0.036l0.273,0.035l0.27,0.034l0.266,0.033l0.263,0.032l0.259,0.03l0.256,0.03l0.126,0.014l0.125,0.014l0.124,0.014l0.123,0.013l0.122,0.013l0.122,0.013l0.12,0.013l0.119,0.012l0.118,0.012l0.116,0.011l0.116,0.011l0.115,0.011l0.113,0.011l0.112,0.01l0.112,0.01l0.11,0.009l0.108,0.009l0.108,0.009l0.106,0.009l0.105,0.008l0.104,0.008l0.103,0.007l0.101,0.007l0.1,0.007l0.099,0.006l0.097,0.006l0.096,0.005l0.095,0.005l0.093,0.005l0.092,0.005l0.09,0.004l0.089,0.003l0.088,0.003l0.086,0.003l0.084,0.002l0.083,0.002l0.082,0.002l0.08,0.001l0.078,0.001l0.077,0l0.075,0l0.074,0l0.072,-0.001l0.07,-0.001l0.068,-0.002l0.066,-0.002l0.065,-0.002l0.063,-0.003l0.061,-0.003l0.059,-0.004l0.058,-0.004l0.055,-0.004l0.053,-0.005l0.051,-0.005l0.049,-0.005l0.046,-0.006l0.046,-0.006l0.02,-0.003l0.021,-0.003l0.02,-0.003l0.02,-0.003l0.019,-0.004l0.018,-0.003l0.017,-0.003l0.017,-0.003l0.017,-0.004l0.015,-0.003l0.015,-0.003l0.014,-0.003l0.014,-0.004l0.012,-0.003l0.012,-0.003l0.012,-0.003l0.01,-0.003l0.01,-0.003l0.008,-0.002l0.008,-0.003l0.007,-0.002l0.007,-0.003l0.005,-0.002l0.005,-0.001l0.003,-0.002l0.008,-0.003l0.043,-0.018l0.051,-0.021l0.105,-0.044l0.114,-0.046l0.123,-0.05l0.131,-0.052l0.139,-0.054l0.148,-0.058l0.157,-0.06l0.164,-0.063l0.172,-0.066l0.181,-0.068l0.188,-0.071l0.196,-0.073l0.204,-0.076l0.212,-0.079l0.218,-0.081l0.226,-0.084l0.233,-0.086l0.241,-0.088l0.247,-0.091l0.514,-0.187l0.54,-0.197l0.564,-0.205l0.589,-0.213l0.61,-0.221l0.633,-0.228l0.652,-0.235l0.672,-0.241l0.69,-0.248l0.707,-0.254l1.46,-0.523l1.514,-0.542l1.56,-0.558l1.596,-0.571l1.623,-0.582l0.819,-0.293l0.823,-0.295l0.824,-0.296l0.827,-0.297l0.826,-0.298l0.825,-0.297l0.823,-0.297l0.819,-0.296l0.815,-0.295l0.81,-0.293l0.803,-0.292l0.795,-0.29l0.786,-0.287l0.389,-0.142l0.387,-0.142l0.383,-0.14l0.381,-0.14l0.378,-0.139l0.374,-0.138l0.372,-0.137l0.367,-0.136l0.364,-0.135l0.36,-0.133l0.357,-0.133l0.352,-0.131l0.348,-0.13l0.343,-0.129l0.339,-0.127l0.335,-0.126l0.329,-0.124l0.325,-0.123l0.319,-0.121l0.314,-0.119l0.309,-0.118l0.304,-0.117l0.297,-0.114l0.292,-0.113l0.286,-0.11l0.28,-0.109l0.274,-0.107l0.267,-0.105l0.26,-0.103l0.254,-0.101l0.247,-0.098l0.24,-0.097l0.233,-0.094l0.225,-0.091l0.218,-0.09l0.211,-0.087l0.102,-0.042l0.1,-0.042l0.099,-0.042l0.096,-0.04l0.094,-0.04l0.092,-0.04l0.09,-0.038l0.088,-0.038l0.086,-0.037l0.083,-0.037l0.082,-0.036l0.075,-0.033l0.009,-0.005l0.006,-0.002l0.005,-0.003l0.004,-0.002l0.005,-0.003l0.005,-0.003l0.004,-0.002l0.004,-0.003l0.005,-0.004l0.005,-0.003l0.004,-0.003l0.005,-0.004l0.004,-0.004l0.005,-0.004l0.005,-0.004l0.005,-0.004l0.005,-0.005l0.005,-0.005l0.005,-0.006l0.005,-0.005l0.005,-0.006l0.006,-0.007l0.005,-0.007l0.006,-0.007l0.006,-0.007l0.006,-0.008l0.005,-0.009l0.006,-0.009l0.007,-0.009l0.006,-0.009l0.006,-0.011l0.006,-0.01l0.006,-0.011l0.007,-0.012l0.006,-0.011l0.006,-0.013l0.007,-0.013l0.006,-0.013l0.006,-0.013l0.006,-0.014l0.007,-0.015l0.006,-0.015l0.006,-0.015l0.006,-0.016l0.006,-0.016l0.006,-0.017l0.006,-0.017l0.005,-0.018l0.006,-0.017l0.006,-0.019l0.005,-0.018l0.006,-0.02l0.005,-0.019l0.005,-0.019l0.005,-0.021l0.005,-0.02l0.005,-0.021l0.005,-0.021l0.004,-0.021l0.004,-0.022l0.005,-0.022l0.004,-0.022l0.004,-0.023l0.004,-0.022l0.003,-0.024l0.004,-0.023l0.003,-0.023l0.003,-0.024l0.003,-0.024l0.003,-0.025l0.003,-0.024l0.003,-0.025l0.002,-0.025l0.002,-0.025l0.002,-0.025l0.002,-0.025l0.002,-0.026l0.002,-0.026l0.001,-0.025l0.002,-0.026l0.001,-0.027l0.001,-0.026l0.001,-0.026l0,-0.026l0.001,-0.027l0,-0.026l0.001,-0.027l0,-0.026l0,-0.054l-0.001,-0.054l-0.002,-0.054l-0.002,-0.054l-0.002,-0.054l-0.003,-0.054l-0.004,-0.053l-0.004,-0.054l-0.004,-0.053l-0.005,-0.053l-0.005,-0.052l-0.006,-0.052l-0.006,-0.051l-0.007,-0.051l-0.007,-0.051l-0.007,-0.049l-0.008,-0.049l-0.008,-0.047l-0.008,-0.047l-0.008,-0.048l-0.01,-0.05l-0.01,-0.053l-0.011,-0.055l-0.011,-0.056l-0.012,-0.058l-0.013,-0.059l-0.012,-0.06l-0.014,-0.061l-0.014,-0.062l-0.015,-0.063l-0.015,-0.064l-0.016,-0.065l-0.016,-0.065l-0.017,-0.066l-0.017,-0.066l-0.018,-0.067l-0.019,-0.067l-0.019,-0.066l-0.02,-0.067l-0.02,-0.067l-0.021,-0.066l-0.021,-0.068l-0.011,-0.032l-0.011,-0.033l-0.011,-0.032l-0.011,-0.033l-0.012,-0.032l-0.011,-0.032l-0.012,-0.032l-0.011,-0.032l-0.012,-0.032l-0.012,-0.031l-0.012,-0.031l-0.013,-0.031l-0.012,-0.03l-0.012,-0.03l-0.013,-0.03l-0.013,-0.03l-0.012,-0.029l-0.013,-0.029l-0.013,-0.029l-0.013,-0.028l-0.013,-0.028l-0.013,-0.027l-0.013,-0.027l-0.013,-0.026l-0.014,-0.026l-0.013,-0.026l-0.013,-0.025l-0.014,-0.024l-0.013,-0.024l-0.013,-0.024l-0.013,-0.022l-0.014,-0.023l-0.013,-0.022l-0.013,-0.021l-0.013,-0.02l-0.013,-0.02l-0.014,-0.019l-0.012,-0.019l-0.013,-0.018l-0.013,-0.017l-0.012,-0.017l-0.013,-0.015l-0.012,-0.016l-0.011,-0.014l-0.012,-0.014l-0.011,-0.012l-0.011,-0.013l-0.011,-0.011l-0.011,-0.011l-0.01,-0.01l-0.009,-0.009l-0.009,-0.009l-0.009,-0.008l-0.009,-0.007l-0.008,-0.007l-0.007,-0.005l-0.007,-0.006l-0.006,-0.004l-0.006,-0.004l-0.008,-0.005l-0.002,-0.001l-0.002,-0.002l-0.002,-0.001l-0.002,-0.001l-0.002,-0.001l-0.002,-0.001l-0.001,-0.001l-0.001,0l-0.001,-0.001l-0.001,0l-0.001,0l-0.001,-0.001l0,0l-0.001,0l-0.001,0l-0.004,0.001l-0.048,0.006l-0.05,0.007l-0.052,0.007l-0.054,0.007l-0.054,0.008l-0.055,0.008l-0.056,0.009l-0.058,0.009l-0.058,0.01l-0.06,0.009l-0.06,0.01l-0.062,0.011l-0.062,0.011l-0.063,0.011l-0.064,0.012l-0.066,0.012l-0.066,0.012l-0.066,0.012l-0.137,0.027l-0.141,0.028l-0.143,0.029l-0.147,0.03l-0.151,0.032l-0.153,0.033l-0.157,0.034l-0.159,0.035l-0.163,0.037l-0.166,0.038l-0.168,0.039l-0.171,0.04l-0.174,0.041l-0.177,0.043l-0.179,0.043l-0.182,0.045l-0.184,0.045l-0.187,0.047l-0.189,0.047l-0.192,0.049l-0.194,0.049l-0.196,0.05l-0.198,0.052l-0.2,0.052l-0.202,0.053l-0.204,0.054l-0.206,0.054l-0.208,0.056l-0.209,0.056l-0.212,0.057l-0.213,0.058l-0.214,0.058l-0.217,0.059l-0.217,0.06l-0.22,0.06l-0.22,0.061l-0.222,0.062l-0.223,0.062l-0.225,0.062l-0.225,0.063l-0.227,0.064l-0.456,0.129l-0.461,0.131l-0.463,0.132l-0.467,0.133l-0.468,0.135l-0.471,0.136l-0.473,0.137l-0.473,0.138l-0.475,0.138l-0.474,0.138l-0.475,0.139l-0.473,0.139l-0.473,0.139l-0.94,0.276l-0.931,0.274l-0.917,0.27l-0.901,0.264l-0.443,0.13l-0.438,0.128l-0.432,0.126l-0.425,0.124l-0.419,0.121l-0.412,0.119l-0.404,0.116l-0.396,0.114l-0.387,0.11l-0.379,0.108l-0.186,0.052l-0.183,0.051l-0.181,0.051l-0.179,0.05l-0.176,0.049l-0.174,0.048l-0.171,0.046l-0.168,0.046l-0.165,0.045l-0.163,0.044l-0.16,0.043l-0.157,0.042l-0.154,0.041l-0.151,0.039l-0.149,0.039l-0.142,0.036l-0.052,0.014l-0.058,0.016l-0.067,0.018l-0.074,0.021l-0.08,0.023l-0.088,0.025l-0.195,0.057l-0.218,0.065l-0.24,0.071l-0.261,0.077l-0.28,0.083l-0.297,0.087l-0.155,0.045l-0.159,0.046l-0.163,0.047l-0.167,0.048l-0.169,0.049l-0.174,0.049l-0.176,0.05l-0.179,0.05l-0.183,0.05l-0.185,0.051l-0.187,0.051l-0.19,0.051l-0.192,0.052l-0.194,0.051l-0.196,0.051l-0.198,0.051l-0.199,0.051l-0.201,0.05l-0.202,0.05l-0.102,0.025l-0.102,0.025l-0.102,0.024l-0.102,0.025l-0.103,0.024l-0.102,0.024l-0.103,0.024l-0.103,0.024l-0.104,0.024l-0.103,0.023l-0.103,0.023l-0.104,0.023l-0.103,0.023l-0.104,0.022l-0.104,0.022l-0.103,0.022l-0.104,0.022l-0.104,0.021l-0.104,0.021l-0.103,0.021l-0.104,0.02l-0.103,0.02l-0.103,0.02l-0.104,0.02l-0.103,0.019l-0.103,0.018l-0.102,0.019l-0.103,0.018l-0.102,0.017l-0.102,0.017l-0.102,0.017l-0.102,0.016l-0.101,0.016l-0.101,0.016l-0.101,0.015l-0.101,0.014l-0.1,0.014l-0.099,0.014l-0.1,0.013l-0.099,0.012l-0.098,0.012l-0.099,0.012l-0.098,0.01l-0.097,0.011l-0.097,0.01l-0.096,0.009l-0.096,0.008l-0.096,0.009l-0.095,0.007l-0.094,0.007l-0.094,0.006l-0.094,0.005l-0.093,0.005l-0.091,0.004l-0.129,0.005l-0.129,0.005l-0.132,0.004l-0.134,0.004l-0.136,0.004l-0.139,0.003l-0.14,0.003l-0.143,0.003l-0.144,0.002l-0.147,0.002l-0.148,0.001l-0.15,0.001l-0.152,0.001l-0.154,0.001l-0.156,0l-0.157,0l-0.159,0l-0.161,-0.001l-0.163,-0.001l-0.164,-0.001l-0.165,-0.002l-0.168,-0.001l-0.168,-0.003l-0.17,-0.002l-0.171,-0.003l-0.173,-0.003l-0.174,-0.003l-0.175,-0.003l-0.177,-0.004l-0.177,-0.004l-0.179,-0.004l-0.18,-0.005l-0.181,-0.005l-0.182,-0.005l-0.183,-0.005l-0.184,-0.005l-0.184,-0.006l-0.186,-0.006l-0.186,-0.006l-0.188,-0.006l-0.187,-0.007l-0.189,-0.007l-0.189,-0.007l-0.19,-0.007l-0.19,-0.008l-0.191,-0.007l-0.383,-0.016l-0.384,-0.017l-0.386,-0.017l-0.386,-0.019l-0.387,-0.018l-0.388,-0.02l-0.386,-0.02l-0.387,-0.021l-0.386,-0.021l-0.384,-0.022l-0.383,-0.023l-0.381,-0.023l-0.378,-0.023l-0.377,-0.024l-0.373,-0.024l-0.37,-0.025l-0.366,-0.025l-0.363,-0.025l-0.358,-0.026l-0.354,-0.026l-0.349,-0.026l-0.343,-0.027l-0.338,-0.027l-0.332,-0.027l-0.326,-0.027l-0.319,-0.027l-0.312,-0.027l-0.153,-0.014l-0.152,-0.014l-0.149,-0.013l-0.148,-0.014l-0.146,-0.014l-0.144,-0.013l-0.141,-0.014l-0.14,-0.014l-0.137,-0.014l-0.135,-0.013l-0.133,-0.014l-0.131,-0.014l-0.128,-0.013l-0.127,-0.014l-0.123,-0.014l-0.122,-0.013l-0.119,-0.014l-0.116,-0.014l-0.114,-0.013l-0.111,-0.014l-0.109,-0.013l-0.106,-0.014l-0.104,-0.013l-0.101,-0.014l-0.098,-0.013l-0.096,-0.013l-0.093,-0.014l-0.096,-0.014l-0.039,-0.006l-0.044,-0.009l-0.044,-0.009l-0.044,-0.011l-0.043,-0.012l-0.043,-0.013l-0.041,-0.014l-0.042,-0.015l-0.04,-0.017l-0.041,-0.017l-0.039,-0.018l-0.038,-0.018l-0.038,-0.02l-0.037,-0.02l-0.036,-0.022l-0.036,-0.022l-0.034,-0.022l-0.033,-0.023l-0.034,-0.023l-0.032,-0.024l-0.031,-0.025l-0.031,-0.025l-0.029,-0.025l-0.028,-0.026l-0.028,-0.026l-0.028,-0.026l-0.026,-0.027l-0.026,-0.027l-0.025,-0.027l-0.024,-0.027l-0.024,-0.028l-0.023,-0.028l-0.022,-0.028l-0.022,-0.027l-0.021,-0.028l-0.02,-0.029l-0.02,-0.028l-0.019,-0.028l-0.019,-0.029l-0.018,-0.028l-0.018,-0.029l-0.018,-0.029l-0.016,-0.028l-0.017,-0.029l-0.016,-0.029l-0.015,-0.029l-0.015,-0.028l-0.015,-0.03l-0.014,-0.029l-0.013,-0.029l-0.014,-0.029l-0.013,-0.029l-0.012,-0.029l-0.013,-0.029l-0.012,-0.029l-0.011,-0.029l-0.012,-0.029l-0.01,-0.029l-0.011,-0.03l-0.011,-0.029l-0.01,-0.029l-0.009,-0.029l-0.01,-0.029l-0.009,-0.029l-0.009,-0.029l-0.009,-0.029l-0.008,-0.029l-0.009,-0.032l-0.014,-0.056l-0.015,-0.058l-0.013,-0.058l-0.013,-0.058l-0.011,-0.057l-0.011,-0.058l-0.01,-0.058l-0.009,-0.057l-0.008,-0.058l-0.007,-0.056l-0.007,-0.057l-0.005,-0.057l-0.005,-0.056l-0.004,-0.056l-0.003,-0.056l-0.003,-0.056l-0.001,-0.056l-0.001,-0.055l0,-0.055l0.001,-0.055l0.002,-0.055l0.002,-0.054l0.004,-0.055l0.004,-0.054l0.006,-0.054l0.006,-0.054l0.007,-0.052l0.005,-0.03l0.005,-0.026l0.004,-0.028l0.006,-0.027l0.005,-0.028l0.006,-0.027l0.006,-0.027l0.007,-0.027l0.007,-0.027l0.007,-0.029l0.014,-0.05l0.016,-0.052l0.017,-0.051l0.018,-0.051l0.019,-0.05l0.019,-0.051l0.021,-0.05l0.021,-0.049l0.022,-0.049l0.023,-0.05l0.024,-0.049l0.024,-0.048l0.026,-0.049l0.026,-0.049l0.027,-0.048l0.028,-0.048l0.028,-0.048l0.03,-0.047l0.03,-0.048l0.031,-0.047l0.032,-0.048l0.032,-0.046l0.034,-0.047l0.034,-0.046l0.035,-0.047l0.036,-0.045l0.036,-0.046l0.038,-0.045l0.038,-0.045l0.039,-0.044l0.04,-0.044l0.041,-0.044l0.04,-0.041l0.023,-0.023l0.021,-0.021l0.022,-0.022l0.022,-0.021l0.022,-0.021l0.023,-0.02l0.022,-0.02l0.023,-0.021l0.024,-0.021l0.023,-0.02l0.023,-0.019l0.024,-0.021l0.025,-0.019l0.024,-0.02l0.024,-0.019l0.026,-0.019l0.025,-0.019l0.026,-0.019l0.025,-0.018l0.026,-0.018l0.027,-0.018l0.027,-0.018l0.027,-0.018l0.027,-0.017l0.028,-0.017l0.028,-0.017l0.028,-0.017l0.029,-0.016l0.029,-0.016l0.029,-0.016l0.03,-0.015l0.03,-0.015l0.031,-0.015l0.03,-0.015l0.031,-0.014l0.032,-0.013l0.032,-0.014l0.032,-0.013l0.032,-0.012l0.033,-0.012l0.034,-0.012l0.034,-0.011l0.034,-0.011l0.034,-0.01l0.035,-0.01l0.035,-0.009l0.036,-0.008l0.036,-0.008l0.036,-0.008l0.037,-0.007l0.037,-0.006l0.037,-0.005l0.038,-0.005l0.038,-0.004l0.039,-0.004l0.038,-0.003l0.039,-0.002l0.036,-0.001l0.092,-0.001l0.093,-0.001l0.094,0l0.097,0l0.099,0.001l0.102,0.001l0.104,0.003l0.107,0.002l0.109,0.003l0.111,0.004l0.114,0.004l0.116,0.005l0.119,0.005l0.12,0.005l0.123,0.006l0.125,0.007l0.127,0.007l0.13,0.007l0.131,0.008l0.134,0.008l0.135,0.009l0.138,0.009l0.14,0.009l0.141,0.01l0.143,0.01l0.145,0.011l0.147,0.01l0.148,0.012l0.151,0.011l0.152,0.012l0.308,0.024l0.314,0.026l0.32,0.026l0.325,0.028l0.331,0.028l0.334,0.03l0.339,0.03l0.343,0.031l0.345,0.031l0.349,0.032l0.352,0.032l0.71,0.066l1.434,0.133l0.718,0.067l0.359,0.033l0.357,0.032l0.355,0.032l0.354,0.032l0.351,0.031l0.348,0.031l0.345,0.03l0.342,0.029l0.338,0.028l0.333,0.027l0.329,0.026l0.162,0.013l0.162,0.013l0.159,0.012l0.159,0.012l0.157,0.011l0.155,0.011l0.154,0.011l0.152,0.011l0.15,0.01l0.149,0.01l0.147,0.009l0.145,0.009l0.143,0.009l0.141,0.008l0.139,0.008l0.138,0.008l0.135,0.007l0.132,0.006l0.131,0.007l0.128,0.005l0.126,0.006l0.124,0.004l0.121,0.005l0.119,0.004l0.116,0.003l0.113,0.003l0.111,0.002l0.108,0.002l0.105,0.001l0.102,0.001l0.099,0l0.096,0l0.093,-0.001l0.089,-0.001l0.086,-0.002l0.084,-0.003l0.039,-0.001l0.039,-0.001l0.038,-0.002l0.034,-0.002l0.013,-0.001l0.009,0l0.011,-0.001l0.01,-0.001l0.01,-0.002l0.01,-0.001l0.011,-0.002l0.012,-0.002l0.011,-0.002l0.011,-0.002l0.012,-0.003l0.012,-0.003l0.012,-0.003l0.013,-0.003l0.012,-0.004l0.013,-0.003l0.013,-0.005l0.013,-0.004l0.013,-0.004l0.014,-0.005l0.014,-0.005l0.014,-0.006l0.014,-0.005l0.014,-0.006l0.014,-0.007l0.015,-0.006l0.014,-0.007l0.015,-0.007l0.015,-0.007l0.015,-0.007l0.015,-0.008l0.015,-0.008l0.015,-0.009l0.016,-0.008l0.015,-0.009l0.016,-0.009l0.015,-0.01l0.016,-0.01l0.016,-0.01l0.016,-0.01l0.015,-0.01l0.016,-0.011l0.016,-0.011l0.015,-0.011l0.016,-0.011l0.016,-0.012l0.016,-0.012l0.016,-0.012l0.016,-0.012l0.015,-0.013l0.016,-0.012l0.015,-0.013l0.016,-0.013l0.016,-0.014l0.015,-0.013l0.016,-0.014l0.015,-0.014l0.016,-0.014l0.014,-0.014l0.016,-0.015l0.015,-0.015l0.015,-0.015l0.015,-0.014l0.014,-0.015l0.015,-0.016l0.014,-0.015l0.015,-0.016l0.014,-0.015l0.014,-0.016l0.014,-0.016l0.014,-0.016l0.013,-0.016l0.014,-0.016l0.013,-0.017l0.013,-0.016l0.013,-0.016l0.013,-0.017l0.013,-0.016l0.012,-0.017l0.013,-0.017l0.012,-0.017l0.012,-0.016l0.011,-0.017l0.012,-0.017l0.011,-0.017l0.011,-0.017l0.011,-0.017l0.011,-0.017l0.01,-0.017l0.01,-0.017l0.01,-0.016l0.01,-0.017l0.01,-0.017l0.009,-0.017l0.009,-0.016l0.009,-0.017l0.009,-0.017l0.008,-0.016l0.008,-0.016l0.008,-0.017l0.007,-0.016l0.008,-0.016l0.007,-0.016l0.007,-0.015l0.006,-0.016l0.007,-0.016l0.006,-0.015l0.005,-0.015l0.006,-0.015l0.005,-0.015l0.005,-0.014l0.005,-0.014l0.004,-0.015l0.005,-0.013l0.004,-0.014l0.004,-0.014l0.003,-0.013l0.003,-0.013l0.003,-0.012l0.003,-0.013l0.003,-0.012l0.002,-0.011l0.002,-0.012l0.002,-0.011l0.002,-0.011l0.001,-0.01l0.001,-0.01l0.002,-0.011l0.001,-0.013l0.001,-0.015l0.001,-0.016l0.002,-0.016l0,-0.017l0.001,-0.018l0.001,-0.019l0.001,-0.019l0,-0.02l0,-0.021l0,-0.021l0,-0.022l0,-0.022l0,-0.023l-0.001,-0.023l-0.001,-0.024l0,-0.025l-0.002,-0.024l-0.001,-0.025l-0.001,-0.026l-0.002,-0.026l-0.002,-0.026l-0.002,-0.027l-0.003,-0.027l-0.002,-0.027l-0.003,-0.028l-0.003,-0.028l-0.003,-0.028l-0.003,-0.029l-0.004,-0.029l-0.004,-0.029l-0.004,-0.029l-0.004,-0.03l-0.004,-0.029l-0.005,-0.031l-0.005,-0.03l-0.005,-0.03l-0.005,-0.03l-0.005,-0.031l-0.006,-0.03l-0.006,-0.031l-0.006,-0.031l-0.006,-0.031l-0.007,-0.031l-0.007,-0.031l-0.007,-0.032l-0.007,-0.031l-0.007,-0.031l-0.008,-0.031l-0.007,-0.031l-0.009,-0.032l-0.008,-0.031l-0.008,-0.031l-0.009,-0.031l-0.008,-0.031l-0.009,-0.031l-0.01,-0.031l-0.009,-0.031l-0.01,-0.03l-0.009,-0.031l-0.01,-0.031l-0.011,-0.03l-0.01,-0.03l-0.01,-0.03l-0.011,-0.029l-0.011,-0.03l-0.011,-0.03l-0.011,-0.029l-0.012,-0.029l-0.011,-0.028l-0.012,-0.029l-0.012,-0.028l-0.012,-0.028l-0.012,-0.028l-0.013,-0.027l-0.012,-0.027l-0.013,-0.027l-0.012,-0.026l-0.013,-0.026l-0.013,-0.026l-0.013,-0.025l-0.014,-0.025l-0.013,-0.024l-0.013,-0.024l-0.014,-0.024l-0.013,-0.023l-0.014,-0.023l-0.014,-0.022l-0.014,-0.022l-0.014,-0.022l-0.013,-0.021l-0.014,-0.02l-0.014,-0.02l-0.014,-0.02l-0.014,-0.019l-0.014,-0.018l-0.014,-0.018l-0.014,-0.018l-0.014,-0.017l-0.014,-0.016l-0.014,-0.016l-0.013,-0.015l-0.014,-0.015l-0.013,-0.014l-0.014,-0.014l-0.013,-0.013l-0.013,-0.013l-0.013,-0.012l-0.013,-0.012l-0.013,-0.011l-0.013,-0.01l-0.012,-0.01l-0.012,-0.01l-0.012,-0.009l-0.012,-0.008l-0.012,-0.008l-0.011,-0.008l-0.012,-0.007l-0.011,-0.007l-0.011,-0.006l-0.01,-0.006l-0.011,-0.005l-0.013,-0.007l-0.002,-0.001l-0.005,-0.002l-0.006,-0.003l-0.005,-0.002l-0.005,-0.002l-0.005,-0.002l-0.005,-0.002l-0.005,-0.002l-0.005,-0.002l-0.007,-0.002l-0.108,-0.038l-0.115,-0.04l-0.118,-0.041l-0.123,-0.042l-0.126,-0.043l-0.13,-0.044l-0.134,-0.045l-0.138,-0.046l-0.141,-0.046l-0.144,-0.048l-0.148,-0.049l-0.152,-0.05l-0.155,-0.05l-0.158,-0.051l-0.161,-0.052l-0.165,-0.053l-0.167,-0.053l-0.171,-0.055l-0.173,-0.054l-0.177,-0.056l-0.179,-0.056l-0.182,-0.057l-0.185,-0.058l-0.188,-0.058l-0.19,-0.058l-0.193,-0.059l-0.195,-0.06l-0.197,-0.06l-0.201,-0.061l-0.202,-0.061l-0.204,-0.061l-0.207,-0.062l-0.209,-0.063l-0.211,-0.062l-0.213,-0.063l-0.215,-0.063l-0.217,-0.064l-0.219,-0.064l-0.22,-0.064l-0.223,-0.064l-0.224,-0.064l-0.225,-0.065l-0.227,-0.065l-0.229,-0.065l-0.23,-0.065l-0.231,-0.065l-0.233,-0.065l-0.234,-0.065l-0.235,-0.065l-0.236,-0.065l-0.238,-0.065l-0.238,-0.065l-0.239,-0.065l-0.24,-0.065l-0.242,-0.065l-0.241,-0.064l-0.243,-0.065l-0.243,-0.064l-0.244,-0.064l-0.245,-0.064l-0.244,-0.063l-0.246,-0.063l-0.245,-0.063l-0.246,-0.063l-0.247,-0.062l-0.246,-0.062l-0.247,-0.061l-0.246,-0.061l-0.247,-0.061l-0.247,-0.06l-0.246,-0.059l-0.246,-0.06l-0.247,-0.058l-0.245,-0.058l-0.246,-0.058l-0.245,-0.056l-0.245,-0.056l-0.244,-0.056l-0.243,-0.055l-0.243,-0.054l-0.242,-0.053l-0.242,-0.053l-0.24,-0.052l-0.24,-0.051l-0.239,-0.051l-0.238,-0.049l-0.236,-0.049l-0.236,-0.048l-0.234,-0.046l-0.233,-0.046l-0.232,-0.045l-0.231,-0.045l-0.114,-0.021l-0.115,-0.021l-0.114,-0.022l-0.113,-0.021l-0.113,-0.02l-0.113,-0.021l-0.112,-0.02l-0.112,-0.019l-0.112,-0.02l-0.111,-0.019l-0.111,-0.019l-0.11,-0.019l-0.11,-0.019l-0.109,-0.018l-0.109,-0.018l-0.108,-0.017l-0.108,-0.018l-0.107,-0.017l-0.107,-0.016l-0.107,-0.017l-0.106,-0.016l-0.105,-0.016l-0.105,-0.015l-0.104,-0.015l-0.104,-0.015l-0.103,-0.015l-0.102,-0.014l-0.102,-0.014l-0.102,-0.013l-0.1,-0.014l-0.101,-0.013l-0.099,-0.012l-0.099,-0.013l-0.099,-0.011l-0.097,-0.012l-0.097,-0.011l-0.097,-0.011l-0.095,-0.011l-0.096,-0.01l-0.094,-0.01l-0.094,-0.009l-0.093,-0.009l-0.092,-0.009l-0.092,-0.009l-0.09,-0.008l-0.091,-0.007l-0.089,-0.008l-0.088,-0.006l-0.088,-0.007l-0.087,-0.006l-0.087,-0.006l-0.085,-0.005l-0.085,-0.005l-0.084,-0.005l-0.083,-0.004l-0.082,-0.004l-0.081,-0.004l-0.081,-0.003l-0.079,-0.002l-0.079,-0.003l-0.078,-0.002l-0.077,-0.001l-0.076,-0.001l-0.075,-0.001l-0.074,0l-0.073,0l-0.072,0l-0.072,0.001l-0.07,0.001l-0.069,0.002l-0.068,0.002l-0.068,0.003l-0.061,0.002l-0.061,0.003l-0.062,0.003l-0.063,0.003l-0.063,0.004l-0.063,0.004l-0.064,0.004l-0.064,0.004l-0.064,0.004l-0.065,0.005l-0.065,0.005l-0.065,0.005l-0.066,0.005l-0.066,0.005l-0.066,0.006l-0.067,0.006l-0.067,0.006l-0.068,0.007l-0.067,0.006l-0.068,0.007l-0.069,0.007l-0.069,0.007l-0.069,0.008l-0.068,0.007l-0.141,0.016l-0.141,0.017l-0.142,0.017l-0.144,0.019l-0.145,0.019l-0.146,0.02l-0.147,0.021l-0.148,0.022l-0.149,0.022l-0.151,0.024l-0.152,0.024l-0.152,0.024l-0.154,0.026l-0.155,0.026l-0.156,0.027l-0.157,0.028l-0.158,0.029l-0.159,0.029l-0.16,0.03l-0.161,0.031l-0.161,0.031l-0.163,0.033l-0.164,0.032l-0.164,0.034l-0.166,0.034l-0.166,0.035l-0.167,0.036l-0.168,0.036l-0.169,0.037l-0.169,0.037l-0.17,0.038l-0.171,0.039l-0.172,0.04l-0.173,0.04l-0.173,0.04l-0.174,0.041l-0.175,0.042l-0.175,0.043l-0.176,0.042l-0.176,0.044l-0.178,0.044l-0.177,0.045l-0.179,0.045l-0.179,0.046l-0.179,0.046l-0.18,0.047l-0.181,0.047l-0.181,0.048l-0.182,0.048l-0.182,0.049l-0.182,0.049l-0.183,0.05l-0.184,0.05l-0.184,0.051l-0.184,0.051l-0.185,0.051l-0.185,0.052l-0.185,0.053l-0.186,0.053l-0.186,0.053l-0.187,0.054l-0.187,0.054l-0.187,0.054l-0.187,0.055l-0.188,0.055l-0.188,0.056l-0.188,0.056l-0.188,0.056l-0.188,0.057l-0.189,0.057l-0.189,0.057l-0.189,0.058l-0.189,0.058l-0.189,0.058l-0.19,0.059l-0.189,0.059l-0.19,0.059l-0.19,0.059l-0.189,0.06l-0.19,0.06l-0.19,0.06l-0.19,0.061l-0.19,0.06l-0.189,0.061l-0.19,0.061l-0.19,0.062l-0.189,0.061l-0.19,0.062l-0.189,0.062l-0.19,0.063l-0.189,0.062l-0.189,0.062l-0.189,0.063l-0.189,0.063l-0.189,0.063l-0.188,0.063l-0.188,0.063l-0.188,0.064l-0.188,0.063l-0.188,0.064l-0.187,0.064l-0.187,0.064l-0.373,0.128l-0.372,0.128l-0.37,0.128l-0.369,0.129l-0.367,0.129l-0.365,0.129l-0.364,0.128l-0.362,0.129l-0.359,0.129l-0.357,0.128l-0.355,0.128l-0.353,0.128l-0.35,0.127l-0.347,0.127l-0.344,0.127l-0.342,0.126l-0.338,0.125l-0.336,0.125l-0.332,0.124l-0.328,0.123l-0.326,0.122l-0.321,0.121l-0.318,0.121l-0.314,0.119l-0.31,0.118l-0.307,0.117l-0.301,0.116l-0.298,0.115l-0.293,0.113l-0.289,0.112l-0.284,0.11l-0.279,0.109l-0.275,0.107l-0.269,0.105l-0.264,0.104l-0.259,0.102l-0.254,0.1l-0.248,0.099l-0.243,0.096l-0.237,0.094l-0.231,0.092l-0.226,0.091l-0.219,0.087l-0.213,0.086l-0.207,0.083l-0.395,0.16l-0.369,0.149l-0.341,0.139l-0.312,0.128l-0.284,0.117l-0.254,0.105l-0.223,0.092l-0.19,0.079l-0.158,0.066l-0.214,0.089l-0.073,0.031l-0.382,0.079l-0.383,-0.074l-0.326,-0.215l-0.219,-0.323l-0.078,-0.382l0.074,-0.384l0.214,-0.325l0.323,-0.219l0.075,-0.031l0.218,-0.092l0.16,-0.067l0.193,-0.08l0.225,-0.093l0.257,-0.106l0.286,-0.117l0.315,-0.129l0.344,-0.14l0.371,-0.151l0.398,-0.16l0.208,-0.084l0.215,-0.087l0.221,-0.088l0.227,-0.091l0.233,-0.093l0.238,-0.095l0.245,-0.097l0.25,-0.099l0.255,-0.101l0.261,-0.102l0.266,-0.105l0.271,-0.106l0.276,-0.108l0.281,-0.109l0.286,-0.111l0.291,-0.113l0.295,-0.114l0.299,-0.115l0.304,-0.116l0.308,-0.118l0.313,-0.119l0.316,-0.12l0.32,-0.121l0.324,-0.123l0.327,-0.123l0.331,-0.124l0.334,-0.124l0.338,-0.126l0.341,-0.126l0.344,-0.127l0.347,-0.127l0.35,-0.128l0.352,-0.129l0.355,-0.128l0.358,-0.13l0.36,-0.129l0.362,-0.13l0.365,-0.129l0.366,-0.13l0.369,-0.13l0.37,-0.13l0.372,-0.13l0.374,-0.129l0.375,-0.13l0.376,-0.129l0.189,-0.064l0.189,-0.064l0.189,-0.065l0.19,-0.064l0.189,-0.064l0.19,-0.064l0.191,-0.064l0.19,-0.063l0.191,-0.064l0.191,-0.063l0.191,-0.063l0.191,-0.063l0.191,-0.063l0.192,-0.063l0.192,-0.062l0.191,-0.063l0.192,-0.062l0.192,-0.062l0.192,-0.061l0.192,-0.062l0.192,-0.061l0.192,-0.061l0.192,-0.06l0.192,-0.061l0.192,-0.06l0.192,-0.06l0.192,-0.06l0.192,-0.059l0.191,-0.059l0.192,-0.059l0.192,-0.058l0.191,-0.058l0.191,-0.058l0.192,-0.058l0.191,-0.057l0.19,-0.057l0.191,-0.056l0.19,-0.056l0.191,-0.056l0.19,-0.055l0.189,-0.055l0.19,-0.054l0.189,-0.055l0.189,-0.053l0.188,-0.054l0.189,-0.053l0.188,-0.052l0.187,-0.052l0.187,-0.052l0.187,-0.051l0.187,-0.05l0.186,-0.051l0.186,-0.049l0.185,-0.05l0.185,-0.048l0.184,-0.049l0.184,-0.047l0.183,-0.048l0.183,-0.046l0.183,-0.047l0.182,-0.045l0.181,-0.045l0.181,-0.045l0.18,-0.044l0.18,-0.043l0.179,-0.043l0.178,-0.043l0.178,-0.041l0.177,-0.041l0.177,-0.041l0.176,-0.04l0.175,-0.039l0.175,-0.039l0.174,-0.038l0.173,-0.037l0.172,-0.037l0.172,-0.036l0.171,-0.035l0.171,-0.035l0.169,-0.034l0.169,-0.033l0.168,-0.033l0.167,-0.032l0.166,-0.031l0.166,-0.031l0.164,-0.029l0.164,-0.029l0.163,-0.029l0.162,-0.027l0.161,-0.027l0.16,-0.026l0.16,-0.025l0.158,-0.025l0.158,-0.024l0.156,-0.022l0.156,-0.023l0.154,-0.021l0.154,-0.02l0.153,-0.02l0.151,-0.019l0.151,-0.017l0.149,-0.017l0.075,-0.009l0.074,-0.008l0.074,-0.007l0.074,-0.008l0.073,-0.007l0.073,-0.007l0.073,-0.007l0.073,-0.007l0.072,-0.006l0.072,-0.007l0.072,-0.006l0.071,-0.005l0.072,-0.006l0.07,-0.005l0.071,-0.005l0.071,-0.005l0.07,-0.004l0.07,-0.005l0.069,-0.004l0.069,-0.004l0.07,-0.003l0.068,-0.004l0.069,-0.003l0.069,-0.003l0.079,-0.003l0.081,-0.002l0.081,-0.002l0.083,-0.002l0.082,-0.001l0.084,0l0.084,0l0.085,0Z" style="fill:#fff;"/><path d="M73.56,32.234c5.524,-12.721 16.572,-12.721 22.096,-8.038c5.524,4.682 5.524,14.047 0,23.412c-3.867,7.024 -13.81,14.048 -22.096,18.73c-8.286,-4.682 -18.229,-11.706 -22.096,-18.73c-5.524,-9.365 -5.524,-18.73 0,-23.412c5.524,-4.683 16.572,-4.683 22.096,8.038Z" style="fill:#ff8181;"/><path d="M136.709,111.038l-0.351,0.28l-0.388,0.224l-0.418,0.164l-0.438,0.1l-0.447,0.034l-0.423,-0.017l-31.048,-0.98l-26.784,-0.461l-12.494,-0.114l-10.499,-0.042l-8.312,-0.002l-8.978,0.009l-19.669,0.048l-4.007,0.016l-0.217,-0.016l-0.213,-0.047l-0.204,-0.079l-0.189,-0.109l-0.172,-0.135l-0.149,-0.16l-0.124,-0.181l0,0.001l-0.074,-0.127l-0.074,-0.129l-0.074,-0.128l-0.073,-0.128l-0.074,-0.129l-0.073,-0.129l-0.073,-0.129l-0.072,-0.129l-0.072,-0.129l-0.072,-0.129l-0.072,-0.13l-0.072,-0.129l-0.071,-0.13l-0.071,-0.13l-0.07,-0.13l-0.071,-0.13l-0.07,-0.13l-0.07,-0.13l-0.069,-0.131l-0.069,-0.13l-0.069,-0.131l-0.069,-0.131l-0.068,-0.131l-0.069,-0.131l-0.067,-0.131l-0.068,-0.131l-0.067,-0.132l-0.067,-0.132l-0.067,-0.131l-0.067,-0.132l-0.066,-0.132l-0.066,-0.132l-0.065,-0.132l-0.066,-0.133l-0.065,-0.132l-0.065,-0.133l-0.064,-0.133l-0.065,-0.132l-0.064,-0.133l-0.063,-0.133l-0.064,-0.134l-0.063,-0.133l-0.063,-0.133l-0.063,-0.134l-0.062,-0.133l-0.062,-0.134l-0.062,-0.134l-0.061,-0.134l-0.062,-0.134l-0.06,-0.134l-0.061,-0.135l-0.061,-0.134l-0.06,-0.135l-0.059,-0.134l-0.06,-0.135l-0.059,-0.135l-0.059,-0.135l-0.059,-0.135l-0.058,-0.136l-0.059,-0.135l-0.058,-0.135l-0.057,-0.136l-0.057,-0.136l-0.057,-0.135l-0.057,-0.136l-0.057,-0.136l-0.056,-0.137l-0.056,-0.136l-0.055,-0.136l-0.056,-0.137l-0.055,-0.136l-0.055,-0.137l-0.054,-0.136l-0.054,-0.137l-0.054,-0.137l-0.054,-0.137l-0.053,-0.138l-0.054,-0.137l-0.052,-0.137l-0.053,-0.138l-0.052,-0.137l-0.052,-0.138l-0.052,-0.138l-0.051,-0.138l-0.051,-0.138l-0.051,-0.138l-0.051,-0.138l-0.05,-0.138l-0.05,-0.138l-0.05,-0.139l-0.049,-0.138l-0.049,-0.139l-0.049,-0.139l-0.049,-0.139l-0.048,-0.139l-0.048,-0.139l-0.048,-0.139l-0.047,-0.139l-0.047,-0.139l-0.047,-0.14l-0.047,-0.139l-0.046,-0.14l-0.046,-0.14l-0.046,-0.139l-0.045,-0.14l-0.045,-0.14l-0.045,-0.14l-0.023,-0.071l-0.022,-0.069l-0.044,-0.141l-0.045,-0.14l-0.043,-0.14l-0.044,-0.141l-0.043,-0.14l-0.043,-0.141l-0.043,-0.141l-0.042,-0.14l-0.042,-0.141l-0.042,-0.141l-0.042,-0.141l-0.041,-0.141l-0.041,-0.142l-0.041,-0.141l-0.04,-0.141l-0.04,-0.142l-0.04,-0.141l-0.04,-0.142l-0.039,-0.142l-0.039,-0.142l-0.038,-0.142l-0.039,-0.142l-0.038,-0.142l-0.038,-0.142l-0.037,-0.142l-0.037,-0.142l-0.037,-0.143l-0.037,-0.142l-0.036,-0.143l-0.037,-0.142l-0.035,-0.143l-0.036,-0.143l-0.035,-0.142l-0.035,-0.143l-0.035,-0.143l-0.034,-0.143l-0.034,-0.143l-0.034,-0.144l-0.033,-0.143l-0.033,-0.143l-0.033,-0.144l-0.033,-0.143l-0.032,-0.144l-0.032,-0.143l-0.032,-0.144l-0.031,-0.144l-0.031,-0.143l-0.031,-0.144l-0.031,-0.144l-0.03,-0.144l-0.03,-0.144l-0.03,-0.145l-0.029,-0.144l-0.029,-0.144l-0.029,-0.145l-0.029,-0.144l-0.028,-0.144l-0.028,-0.145l-0.027,-0.145l-0.028,-0.144l-0.027,-0.145l-0.027,-0.145l-0.026,-0.145l-0.026,-0.145l-0.026,-0.145l-0.026,-0.145l-0.025,-0.145l-0.025,-0.145l-0.025,-0.145l-0.024,-0.146l-0.024,-0.145l-0.024,-0.145l-0.023,-0.146l-0.024,-0.145l-0.023,-0.146l-0.022,-0.146l-0.023,-0.145l-0.022,-0.146l-0.021,-0.146l-0.022,-0.146l-0.021,-0.146l-0.021,-0.146l-0.02,-0.146l-0.021,-0.146l-0.02,-0.146l-0.019,-0.146l-0.02,-0.146l-0.019,-0.146l-0.019,-0.147l-0.018,-0.146l-0.018,-0.147l-0.018,-0.146l-0.018,-0.147l-0.017,-0.146l-0.017,-0.147l-0.017,-0.146l-0.016,-0.147l-0.016,-0.147l-0.016,-0.147l-0.016,-0.147l-0.015,-0.147l-0.015,-0.146l-0.014,-0.147l-0.015,-0.148l-0.014,-0.147l-0.014,-0.147l-0.013,-0.147l-0.013,-0.147l-0.013,-0.147l-0.012,-0.148l-0.013,-0.147l-0.012,-0.147l-0.011,-0.148l-0.012,-0.147l-0.011,-0.148l-0.01,-0.147l-0.011,-0.148l-0.01,-0.147l-0.01,-0.148l-0.009,-0.148l-0.01,-0.147l-0.008,-0.148l-0.009,-0.148l-0.008,-0.148l-0.008,-0.148l-0.008,-0.148l-0.008,-0.148l-0.007,-0.147l-0.006,-0.148l-0.007,-0.148l-0.006,-0.149l-0.006,-0.148l-0.006,-0.148l-0.005,-0.148l-0.005,-0.148l-0.005,-0.148l-0.004,-0.149l-0.004,-0.148l-0.004,-0.148l-0.004,-0.148l-0.003,-0.149l-0.003,-0.148l-0.002,-0.149l-0.002,-0.148l-0.002,-0.148l-0.002,-0.149l-0.001,-0.148l-0.001,-0.149l-0.001,-0.117l-0.001,-0.116l0,-0.117l0,-0.117l0,-0.116l0.001,-0.117l0,-0.116l0.001,-0.116l0,-0.086l0.001,-0.031l0.001,-0.116l0.001,-0.116l0.001,-0.117l0.002,-0.116l0.001,-0.117l0.004,-0.231l0.005,-0.232l0.006,-0.232l0.006,-0.232l0.007,-0.231l0.008,-0.232l0.008,-0.231l0.009,-0.231l0.01,-0.231l0.01,-0.23l0.012,-0.231l0.012,-0.23l0.013,-0.23l0.013,-0.23l0.014,-0.23l0.015,-0.23l0.016,-0.229l0.016,-0.229l0.017,-0.229l0.018,-0.229l0.018,-0.229l0.019,-0.228l0.02,-0.228l0.021,-0.228l0.021,-0.228l0.022,-0.228l0.023,-0.227l0.023,-0.228l0.024,-0.227l0.025,-0.227l0.025,-0.226l0.026,-0.227l0.027,-0.226l0.028,-0.226l0.028,-0.226l0.029,-0.225l0.03,-0.226l0.03,-0.225l0.031,-0.225l0.032,-0.225l0.032,-0.225l0.034,-0.224l0.033,-0.224l0.035,-0.224l0.035,-0.224l0.036,-0.223l0.036,-0.224l0.038,-0.223l0.038,-0.223l0.038,-0.222l0.039,-0.223l0.04,-0.222l0.041,-0.222l0.041,-0.221l0.042,-0.222l0.043,-0.221l0.043,-0.221l0.044,-0.221l0.045,-0.221l0.045,-0.22l0.046,-0.22l0.047,-0.22l0.047,-0.22l0.048,-0.219l0.049,-0.219l0.049,-0.219l0.05,-0.219l0.051,-0.218l0.051,-0.218l0.052,-0.218l0.052,-0.218l0.054,-0.217l0.054,-0.217l0.054,-0.217l0.055,-0.217l0.056,-0.216l0.057,-0.217l0.057,-0.216l0.058,-0.215l0.058,-0.216l0.06,-0.215l0.059,-0.215l0.061,-0.214l0.061,-0.215l0.061,-0.214l0.063,-0.214l0.063,-0.213l0.063,-0.213l0.065,-0.213l0.065,-0.213l0.065,-0.213l0.066,-0.212l0.067,-0.212l0.067,-0.212l0.069,-0.211l0.068,-0.211l0.07,-0.211l0.069,-0.21l0.071,-0.211l0.071,-0.21l0.072,-0.21l0.073,-0.209l0.073,-0.209l0.073,-0.209l0.075,-0.209l0.075,-0.208l0.075,-0.208l0.076,-0.208l0.077,-0.207l0.077,-0.207l0.078,-0.207l0.079,-0.207l0.079,-0.206l0.08,-0.206l0.081,-0.206l0.081,-0.205l0.081,-0.205l0.083,-0.205l0.083,-0.204l0.083,-0.204l0.084,-0.204l0.085,-0.204l0.085,-0.203l0.086,-0.203l0.087,-0.203l0.087,-0.202l0.087,-0.202l0.089,-0.202l0.089,-0.201l0.089,-0.201l0.09,-0.201l0.091,-0.2l0.091,-0.2l0.092,-0.2l0.092,-0.2l0.093,-0.199l0.094,-0.199l0.094,-0.198l0.095,-0.199l0.095,-0.197l0.096,-0.198l0.097,-0.197l0.097,-0.197l0.097,-0.197l0.099,-0.196l0.099,-0.196l0.099,-0.195l0.1,-0.195l0.101,-0.195l0.101,-0.195l0.101,-0.194l0.103,-0.194l0.102,-0.194l0.104,-0.193l0.104,-0.193l0.104,-0.192l0.105,-0.192l0.106,-0.192l0.106,-0.192l0.107,-0.191l0.108,-0.19l0.107,-0.191l0.109,-0.19l0.109,-0.19l0.109,-0.189l0.111,-0.189l0.11,-0.189l0.112,-0.188l0.111,-0.188l0.113,-0.188l0.113,-0.187l0.113,-0.187l0.114,-0.186l0.115,-0.186l0.115,-0.186l0.115,-0.185l0.116,-0.185l0.117,-0.185l0.117,-0.184l0.118,-0.184l0.119,-0.184l0.118,-0.183l0.12,-0.183l0.12,-0.182l0.12,-0.182l0.121,-0.182l0.122,-0.181l0.122,-0.181l0.122,-0.181l0.124,-0.18l0.123,-0.18l0.124,-0.179l0.125,-0.179l0.125,-0.179l0.126,-0.178l0.126,-0.178l0.127,-0.177l0.128,-0.177l0.127,-0.177l0.129,-0.176l0.129,-0.176l0.129,-0.176l0.13,-0.175l0.13,-0.174l0.131,-0.175l0.132,-0.174l0.132,-0.173l0.132,-0.173l0.133,-0.173l0.134,-0.172l0.089,-0.115l0.045,-0.057l0.134,-0.171l0.136,-0.171l0.135,-0.171l0.136,-0.17l0.137,-0.17l0.137,-0.169l0.138,-0.169l0.138,-0.168l0.139,-0.168l0.139,-0.168l0.14,-0.167l0.14,-0.167l0.141,-0.166l0.141,-0.166l0.141,-0.166l0.142,-0.165l0.143,-0.165l0.143,-0.164l0.144,-0.164l0.144,-0.163l0.144,-0.163l0.145,-0.163l0.146,-0.162l0.146,-0.161l0.146,-0.161l0.147,-0.161l0.148,-0.161l0.148,-0.16l0.148,-0.159l0.149,-0.159l0.149,-0.159l0.15,-0.158l0.15,-0.158l0.151,-0.157l0.151,-0.157l0.152,-0.156l0.152,-0.156l0.153,-0.155l0.153,-0.155l0.153,-0.155l0.154,-0.154l0.155,-0.154l0.155,-0.153l0.155,-0.153l0.156,-0.152l0.156,-0.152l0.157,-0.151l0.157,-0.151l0.158,-0.151l0.158,-0.15l0.159,-0.149l0.159,-0.149l0.159,-0.149l0.16,-0.148l0.16,-0.148l0.161,-0.147l0.161,-0.146l0.162,-0.147l0.162,-0.146l0.163,-0.145l0.163,-0.145l0.163,-0.144l0.164,-0.144l0.165,-0.143l0.164,-0.143l0.166,-0.143l0.165,-0.142l0.166,-0.141l0.167,-0.141l0.167,-0.141l0.167,-0.14l0.168,-0.139l0.168,-0.139l0.169,-0.139l0.169,-0.138l0.17,-0.137l0.169,-0.137l0.171,-0.137l0.171,-0.136l0.171,-0.136l0.171,-0.135l0.173,-0.134l0.172,-0.134l0.173,-0.134l0.173,-0.133l0.174,-0.133l0.174,-0.132l0.175,-0.131l0.174,-0.131l0.176,-0.131l0.176,-0.13l0.176,-0.129l0.176,-0.129l0.177,-0.129l0.178,-0.128l0.178,-0.127l0.178,-0.127l0.178,-0.127l0.179,-0.126l0.18,-0.125l0.18,-0.125l0.18,-0.124l0.18,-0.124l0.181,-0.124l0.182,-0.122l0.182,-0.123l0.182,-0.121l0.032,-0.022l0.151,-0.099l0.183,-0.121l0.183,-0.12l0.184,-0.119l0.185,-0.119l0.184,-0.118l0.185,-0.117l0.186,-0.118l0.186,-0.116l0.186,-0.116l0.187,-0.116l0.187,-0.115l0.187,-0.114l0.188,-0.114l0.188,-0.113l0.188,-0.113l0.189,-0.112l0.189,-0.112l0.19,-0.111l0.19,-0.111l0.19,-0.11l0.191,-0.109l0.191,-0.109l0.192,-0.108l0.191,-0.108l0.193,-0.108l0.192,-0.106l0.193,-0.106l0.193,-0.106l0.194,-0.105l0.194,-0.104l0.194,-0.104l0.195,-0.103l0.195,-0.103l0.195,-0.102l0.196,-0.102l0.196,-0.101l0.196,-0.1l0.197,-0.1l0.197,-0.1l0.198,-0.098l0.198,-0.098l0.198,-0.098l0.198,-0.097l0.199,-0.096l0.199,-0.096l0.2,-0.095l0.2,-0.095l0.2,-0.094l0.201,-0.094l0.2,-0.092l0.202,-0.093l0.201,-0.091l0.202,-0.092l0.202,-0.09l0.203,-0.09l0.203,-0.089l0.203,-0.089l0.203,-0.088l0.204,-0.088l0.204,-0.087l0.205,-0.086l0.205,-0.086l0.205,-0.085l0.205,-0.084l0.206,-0.084l0.206,-0.084l0.207,-0.082l0.206,-0.082l0.207,-0.082l0.208,-0.081l0.207,-0.08l0.208,-0.08l0.209,-0.079l0.208,-0.078l0.209,-0.078l0.209,-0.077l0.21,-0.077l0.21,-0.076l0.21,-0.075l0.21,-0.075l0.211,-0.074l0.211,-0.073l0.211,-0.073l0.212,-0.072l0.212,-0.072l0.212,-0.071l0.213,-0.07l0.212,-0.07l0.213,-0.069l0.214,-0.068l0.213,-0.068l0.214,-0.067l0.215,-0.067l0.214,-0.065l0.215,-0.066l0.215,-0.064l0.216,-0.064l0.215,-0.063l0.216,-0.063l0.216,-0.062l0.147,-0.042l0.07,-0.019l0.217,-0.06l0.217,-0.06l0.218,-0.059l0.217,-0.058l0.218,-0.058l0.219,-0.057l0.218,-0.056l0.219,-0.055l0.219,-0.055l0.219,-0.055l0.22,-0.053l0.22,-0.053l0.22,-0.052l0.22,-0.052l0.221,-0.051l0.221,-0.05l0.221,-0.05l0.221,-0.049l0.222,-0.048l0.222,-0.048l0.222,-0.047l0.223,-0.046l0.222,-0.046l0.223,-0.045l0.223,-0.044l0.224,-0.043l0.223,-0.043l0.224,-0.042l0.225,-0.042l0.224,-0.041l0.225,-0.04l0.224,-0.039l0.226,-0.039l0.225,-0.038l0.225,-0.038l0.226,-0.036l0.226,-0.036l0.227,-0.036l0.226,-0.034l0.227,-0.034l0.227,-0.033l0.227,-0.033l0.227,-0.032l0.228,-0.031l0.228,-0.03l0.228,-0.03l0.228,-0.029l0.229,-0.028l0.228,-0.028l0.229,-0.027l0.23,-0.026l0.229,-0.026l0.23,-0.024l0.229,-0.025l0.23,-0.023l0.231,-0.023l0.23,-0.021l0.231,-0.022l0.231,-0.02l0.231,-0.02l0.231,-0.019l0.232,-0.018l0.231,-0.018l0.232,-0.017l0.232,-0.016l0.232,-0.016l0.233,-0.014l0.233,-0.014l0.232,-0.014l0.234,-0.012l0.233,-0.012l0.233,-0.011l0.234,-0.01l0.234,-0.01l0.234,-0.009l0.234,-0.008l0.234,-0.008l0.234,-0.006l0.118,-0.003l0.118,-0.003l0.117,-0.003l0.118,-0.002l0.117,-0.003l0.118,-0.002l0.117,-0.002l0.118,-0.002l0.118,-0.001l0.118,-0.002l0.117,-0.001l0.118,-0.001l0.118,-0.001l0.118,0l0.118,-0.001l0.118,0l0.118,0l0.118,0l0.117,0l0.118,0.001l0.118,0l0.117,0.001l0.118,0.001l0.118,0.002l0.117,0.001l0.118,0.002l0.117,0.001l0.118,0.002l0.234,0.005l0.235,0.005l0.234,0.006l0.234,0.007l0.234,0.007l0.234,0.008l0.234,0.009l0.233,0.01l0.233,0.01l0.233,0.011l0.233,0.012l0.233,0.013l0.233,0.013l0.232,0.014l0.232,0.015l0.232,0.015l0.232,0.016l0.232,0.017l0.231,0.018l0.231,0.018l0.231,0.019l0.231,0.02l0.231,0.021l0.23,0.021l0.23,0.022l0.231,0.022l0.229,0.024l0.23,0.024l0.229,0.025l0.23,0.025l0.229,0.026l0.229,0.027l0.228,0.028l0.229,0.028l0.228,0.029l0.228,0.03l0.228,0.03l0.227,0.031l0.228,0.032l0.227,0.033l0.227,0.033l0.226,0.034l0.227,0.035l0.226,0.035l0.226,0.036l0.226,0.037l0.225,0.037l0.226,0.038l0.225,0.039l0.225,0.039l0.225,0.041l0.224,0.04l0.224,0.042l0.224,0.042l0.224,0.043l0.223,0.044l0.224,0.044l0.223,0.045l0.223,0.045l0.222,0.047l0.222,0.047l0.222,0.047l0.222,0.049l0.222,0.049l0.221,0.049l0.221,0.051l0.221,0.051l0.221,0.051l0.22,0.053l0.22,0.052l0.22,0.054l0.22,0.054l0.219,0.055l0.219,0.056l0.219,0.056l0.218,0.057l0.219,0.058l0.218,0.058l0.217,0.059l0.218,0.06l0.217,0.06l0.217,0.061l0.217,0.062l0.216,0.062l0.217,0.063l0.215,0.063l0.216,0.064l0.215,0.065l0.216,0.065l0.214,0.067l0.215,0.066l0.214,0.068l0.214,0.068l0.214,0.068l0.037,0.012l0.176,0.058l0.213,0.07l0.213,0.071l0.212,0.071l0.213,0.072l0.211,0.073l0.212,0.073l0.211,0.074l0.211,0.075l0.211,0.075l0.211,0.076l0.21,0.077l0.209,0.077l0.21,0.077l0.209,0.079l0.209,0.079l0.209,0.079l0.208,0.081l0.208,0.08l0.208,0.082l0.207,0.082l0.207,0.083l0.207,0.083l0.207,0.084l0.206,0.084l0.206,0.086l0.205,0.085l0.206,0.087l0.205,0.087l0.204,0.087l0.205,0.088l0.204,0.089l0.203,0.089l0.204,0.09l0.203,0.091l0.202,0.091l0.203,0.092l0.202,0.092l0.201,0.093l0.202,0.094l0.201,0.094l0.201,0.095l0.2,0.095l0.2,0.096l0.2,0.096l0.199,0.097l0.199,0.098l0.199,0.098l0.198,0.099l0.198,0.1l0.198,0.1l0.197,0.1l0.197,0.102l0.197,0.101l0.196,0.103l0.196,0.103l0.196,0.103l0.195,0.104l0.195,0.105l0.195,0.105l0.194,0.106l0.194,0.106l0.194,0.107l0.193,0.107l0.193,0.108l0.192,0.109l0.192,0.109l0.192,0.11l0.191,0.11l0.191,0.111l0.191,0.112l0.19,0.112l0.19,0.112l0.19,0.113l0.189,0.114l0.189,0.114l0.188,0.115l0.188,0.115l0.188,0.116l0.187,0.116l0.187,0.117l0.187,0.118l0.186,0.118l0.186,0.118l0.186,0.12l0.185,0.119l0.184,0.12l0.185,0.121l0.184,0.122l0.183,0.121l0.183,0.123l0.183,0.123l0.183,0.123l0.182,0.124l0.181,0.125l0.181,0.125l0.181,0.125l0.181,0.126l0.18,0.127l0.179,0.127l0.18,0.128l0.178,0.128l0.179,0.129l0.178,0.129l0.178,0.13l0.177,0.13l0.177,0.131l0.176,0.131l0.176,0.132l0.176,0.133l0.175,0.133l0.175,0.133l0.174,0.134l0.174,0.134l0.174,0.135l0.173,0.136l0.173,0.136l0.172,0.136l0.172,0.137l0.171,0.138l0.171,0.138l0.171,0.138l0.17,0.139l0.17,0.14l0.17,0.14l0.168,0.14l0.169,0.141l0.168,0.142l0.168,0.142l0.167,0.142l0.167,0.143l0.166,0.143l0.166,0.144l0.166,0.145l0.165,0.145l0.165,0.145l0.164,0.146l0.163,0.147l0.164,0.146l0.163,0.148l0.162,0.148l0.162,0.148l0.162,0.149l0.161,0.149l0.161,0.15l0.16,0.15l0.16,0.151l0.159,0.151l0.159,0.152l0.158,0.152l0.158,0.152l0.158,0.153l0.157,0.154l0.156,0.154l0.157,0.154l0.155,0.155l0.155,0.156l0.155,0.156l0.155,0.156l0.153,0.157l0.154,0.157l0.153,0.158l0.152,0.158l0.152,0.159l0.152,0.159l0.151,0.159l0.15,0.16l0.15,0.161l0.15,0.161l0.149,0.161l0.149,0.162l0.148,0.162l0.148,0.163l0.147,0.163l0.147,0.164l0.146,0.164l0.146,0.164l0.145,0.165l0.145,0.165l0.144,0.166l0.144,0.166l0.143,0.167l0.143,0.167l0.143,0.168l0.142,0.168l0.141,0.168l0.141,0.169l0.14,0.169l0.14,0.17l0.14,0.17l0.139,0.171l0.138,0.171l0.138,0.171l0.137,0.172l0.137,0.172l0.137,0.173l0.136,0.173l0.135,0.173l0.135,0.174l0.134,0.175l0.134,0.175l0.134,0.175l0.132,0.175l0.133,0.176l0.132,0.177l0.131,0.177l0.131,0.177l0.13,0.178l0.13,0.178l0.129,0.178l0.129,0.179l0.128,0.179l0.128,0.18l0.127,0.18l0.126,0.181l0.127,0.18l0.125,0.182l0.125,0.181l0.125,0.183l0.124,0.182l0.123,0.183l0.08,0.119l0.043,0.064l0.122,0.184l0.122,0.184l0.121,0.185l0.121,0.185l0.12,0.185l0.119,0.186l0.119,0.186l0.119,0.186l0.118,0.187l0.117,0.187l0.117,0.188l0.116,0.188l0.116,0.188l0.115,0.189l0.115,0.189l0.114,0.19l0.113,0.19l0.113,0.19l0.112,0.19l0.112,0.191l0.112,0.192l0.11,0.192l0.11,0.192l0.11,0.192l0.109,0.193l0.109,0.193l0.108,0.194l0.107,0.194l0.107,0.194l0.106,0.195l0.105,0.195l0.106,0.195l0.104,0.196l0.104,0.196l0.103,0.196l0.103,0.197l0.102,0.197l0.102,0.197l0.101,0.198l0.1,0.198l0.1,0.199l0.1,0.199l0.098,0.199l0.098,0.2l0.098,0.2l0.097,0.2l0.096,0.2l0.096,0.201l0.095,0.202l0.095,0.201l0.094,0.202l0.093,0.202l0.093,0.203l0.092,0.203l0.092,0.203l0.091,0.204l0.09,0.204l0.09,0.204l0.089,0.205l0.089,0.204l0.088,0.206l0.087,0.205l0.087,0.206l0.086,0.206l0.086,0.207l0.085,0.207l0.084,0.207l0.084,0.207l0.083,0.208l0.083,0.208l0.082,0.209l0.081,0.208l0.081,0.209l0.08,0.21l0.079,0.209l0.079,0.21l0.078,0.211l0.078,0.21l0.076,0.211l0.077,0.211l0.075,0.212l0.075,0.211l0.075,0.213l0.074,0.212l0.073,0.213l0.072,0.213l0.072,0.213l0.072,0.213l0.07,0.214l0.07,0.214l0.069,0.215l0.069,0.215l0.068,0.215l0.068,0.215l0.066,0.216l0.067,0.215l0.065,0.217l0.065,0.216l0.064,0.217l0.064,0.217l0.062,0.217l0.063,0.218l0.061,0.218l0.061,0.218l0.06,0.218l0.06,0.219l0.059,0.219l0.058,0.219l0.058,0.219l0.057,0.22l0.056,0.22l0.056,0.22l0.055,0.221l0.054,0.221l0.054,0.221l0.053,0.221l0.052,0.222l0.052,0.222l0.051,0.222l0.05,0.222l0.05,0.223l0.049,0.223l0.048,0.223l0.048,0.223l0.047,0.224l0.046,0.224l0.045,0.224l0.045,0.224l0.044,0.225l0.044,0.225l0.043,0.225l0.042,0.225l0.041,0.226l0.041,0.226l0.04,0.226l0.04,0.226l0.038,0.226l0.038,0.227l0.038,0.227l0.036,0.228l0.036,0.227l0.035,0.228l0.035,0.228l0.034,0.228l0.033,0.228l0.032,0.229l0.032,0.229l0.031,0.229l0.03,0.229l0.03,0.23l0.029,0.229l0.028,0.23l0.027,0.231l0.027,0.23l0.026,0.231l0.026,0.23l0.024,0.231l0.024,0.232l0.023,0.231l0.023,0.232l0.021,0.232l0.022,0.232l0.02,0.232l0.019,0.233l0.019,0.232l0.018,0.233l0.018,0.233l0.016,0.234l0.016,0.233l0.016,0.234l0.014,0.234l0.014,0.234l0.013,0.234l0.012,0.235l0.012,0.234l0.011,0.235l0.01,0.235l0.009,0.235l0.009,0.236l0.007,0.235l0.008,0.236l0.006,0.235l0.003,0.119l0.003,0.118l0.002,0.118l0.002,0.119l0.003,0.118l0.002,0.118l0.001,0.119l0.002,0.118l0.001,0.118l0.002,0.119l0.001,0.118l0.001,0.119l0,0.118l0.001,0.119l0,0.151l0,0.151l0,0.151l-0.001,0.151l-0.001,0.151l-0.001,0.151l-0.002,0.151l-0.001,0.151l-0.003,0.151l-0.002,0.151l-0.003,0.15l-0.003,0.151l-0.003,0.151l-0.004,0.151l-0.004,0.151l-0.004,0.15l-0.005,0.151l-0.005,0.151l-0.005,0.15l-0.006,0.151l-0.005,0.15l-0.007,0.151l-0.006,0.151l-0.007,0.15l-0.007,0.15l-0.007,0.151l-0.008,0.15l-0.008,0.151l-0.008,0.15l-0.009,0.15l-0.009,0.151l-0.009,0.15l-0.01,0.15l-0.01,0.15l-0.01,0.15l-0.01,0.151l-0.011,0.15l-0.011,0.15l-0.011,0.15l-0.012,0.15l-0.012,0.15l-0.012,0.149l-0.013,0.15l-0.013,0.15l-0.013,0.15l-0.014,0.15l-0.014,0.149l-0.014,0.15l-0.014,0.15l-0.015,0.149l-0.015,0.15l-0.015,0.149l-0.016,0.15l-0.016,0.149l-0.016,0.149l-0.017,0.15l-0.017,0.149l-0.017,0.149l-0.017,0.149l-0.018,0.15l-0.018,0.149l-0.019,0.149l-0.018,0.149l-0.019,0.149l-0.02,0.149l-0.019,0.148l-0.02,0.149l-0.02,0.149l-0.021,0.149l-0.021,0.148l-0.021,0.149l-0.021,0.148l-0.022,0.149l-0.022,0.148l-0.022,0.149l-0.023,0.148l-0.023,0.148l-0.023,0.149l-0.024,0.148l-0.024,0.148l-0.024,0.148l-0.024,0.148l-0.025,0.148l-0.025,0.148l-0.025,0.148l-0.026,0.148l-0.026,0.147l-0.026,0.148l-0.027,0.148l-0.027,0.147l-0.027,0.148l-0.027,0.147l-0.028,0.147l-0.028,0.148l-0.028,0.147l-0.029,0.147l-0.029,0.147l-0.029,0.147l-0.03,0.147l-0.03,0.147l-0.03,0.147l-0.03,0.147l-0.031,0.147l-0.031,0.146l-0.031,0.147l-0.032,0.147l-0.032,0.146l-0.032,0.146l-0.033,0.147l-0.033,0.146l-0.033,0.146l-0.033,0.146l-0.034,0.146l-0.034,0.146l-0.034,0.146l-0.035,0.146l-0.035,0.146l-0.035,0.146l-0.035,0.145l-0.036,0.146l-0.036,0.145l-0.037,0.146l-0.036,0.145l-0.037,0.145l-0.038,0.146l-0.037,0.145l-0.038,0.145l-0.038,0.145l-0.039,0.145l-0.039,0.144l-0.039,0.145l-0.039,0.145l-0.04,0.144l-0.04,0.145l-0.04,0.144l-0.04,0.145l-0.041,0.144l-0.041,0.144l-0.042,0.144l-0.042,0.144l-0.042,0.144l-0.042,0.144l-0.043,0.144l-0.042,0.143l-0.044,0.144l-0.043,0.143l-0.044,0.144l-0.044,0.143l-0.044,0.143l-0.045,0.143l-0.045,0.144l-0.045,0.142l-0.046,0.143l-0.046,0.143l-0.046,0.143l-0.046,0.143l-0.047,0.142l-0.047,0.142l-0.047,0.143l-0.048,0.142l-0.048,0.142l-0.048,0.142l-0.048,0.142l-0.049,0.142l-0.049,0.142l-0.049,0.142l-0.05,0.141l-0.05,0.142l-0.05,0.141l-0.051,0.142l-0.05,0.141l-0.051,0.141l-0.052,0.141l-0.051,0.141l-0.052,0.141l-0.053,0.141l-0.052,0.14l-0.053,0.141l-0.053,0.14l-0.054,0.14l-0.053,0.141l-0.054,0.14l-0.055,0.14l-0.054,0.14l-0.055,0.14l-0.055,0.139l-0.056,0.14l-0.055,0.14l-0.056,0.139l-0.057,0.139l-0.056,0.139l-0.057,0.14l-0.057,0.139l-0.058,0.138l-0.057,0.139l-0.058,0.139l-0.059,0.138l-0.058,0.139l-0.059,0.138l-0.059,0.138l-0.06,0.139l-0.06,0.138l-0.06,0.137l-0.06,0.138l-0.061,0.138l-0.06,0.138l-0.062,0.137l-0.061,0.137l-0.062,0.138l-0.062,0.137l-0.062,0.137l-0.063,0.137l-0.063,0.136l-0.063,0.137l-0.063,0.136l-0.064,0.137l-0.064,0.136l-0.065,0.136l-0.064,0.136l-0.065,0.136l-0.065,0.136l-0.066,0.136l-0.066,0.135l-0.066,0.136l-0.066,0.135l-0.067,0.136l-0.066,0.135l-0.068,0.135l-0.067,0.134l-0.068,0.135l-0.068,0.135l-0.068,0.134l-0.069,0.135l-0.069,0.134l-0.069,0.134l-0.069,0.134l-0.07,0.134l-0.07,0.133l-0.07,0.134l-0.071,0.134l-0.071,0.133l-0.071,0.133l-0.035,0.065l-0.036,0.068l-0.072,0.133l-0.072,0.133l-0.073,0.133l-0.072,0.132l-0.073,0.133l-0.073,0.132l-0.074,0.132l-0.073,0.132l-0.074,0.132l-0.075,0.132l-0.074,0.131l-0.075,0.132l-0.074,0.128l-0.252,0.371l-0.305,0.33Zm-63.59,-105.599l-0.11,0.001l-0.11,0l-0.11,0.001l-0.109,0l-0.11,0.001l-0.11,0.001l-0.11,0.002l-0.11,0.001l-0.109,0.002l-0.109,0.002l-0.22,0.004l-0.219,0.004l-0.219,0.006l-0.219,0.006l-0.218,0.007l-0.219,0.008l-0.218,0.008l-0.218,0.009l-0.218,0.009l-0.218,0.011l-0.217,0.011l-0.217,0.011l-0.217,0.013l-0.217,0.013l-0.217,0.013l-0.217,0.015l-0.216,0.015l-0.216,0.016l-0.216,0.016l-0.216,0.017l-0.216,0.018l-0.215,0.018l-0.216,0.019l-0.215,0.02l-0.215,0.021l-0.214,0.021l-0.215,0.021l-0.214,0.023l-0.214,0.023l-0.214,0.024l-0.214,0.024l-0.214,0.025l-0.213,0.026l-0.213,0.026l-0.213,0.027l-0.213,0.028l-0.212,0.029l-0.213,0.029l-0.212,0.029l-0.212,0.031l-0.211,0.031l-0.212,0.031l-0.211,0.032l-0.211,0.033l-0.211,0.034l-0.211,0.034l-0.21,0.035l-0.211,0.036l-0.21,0.036l-0.209,0.036l-0.21,0.038l-0.209,0.038l-0.209,0.039l-0.209,0.039l-0.209,0.04l-0.209,0.041l-0.208,0.041l-0.208,0.042l-0.208,0.042l-0.207,0.044l-0.208,0.043l-0.207,0.045l-0.207,0.045l-0.206,0.046l-0.207,0.046l-0.206,0.047l-0.206,0.047l-0.206,0.048l-0.205,0.049l-0.206,0.05l-0.205,0.05l-0.204,0.05l-0.205,0.052l-0.204,0.052l-0.204,0.052l-0.204,0.053l-0.204,0.054l-0.203,0.054l-0.065,0.018l-0.138,0.037l-0.203,0.055l-0.203,0.056l-0.203,0.056l-0.202,0.057l-0.202,0.057l-0.202,0.059l-0.201,0.058l-0.201,0.06l-0.201,0.06l-0.201,0.06l-0.201,0.061l-0.2,0.062l-0.2,0.062l-0.2,0.063l-0.199,0.064l-0.199,0.064l-0.199,0.065l-0.199,0.065l-0.198,0.066l-0.199,0.067l-0.198,0.067l-0.197,0.067l-0.198,0.069l-0.197,0.069l-0.197,0.069l-0.196,0.07l-0.196,0.071l-0.196,0.071l-0.196,0.072l-0.196,0.072l-0.195,0.073l-0.195,0.074l-0.194,0.074l-0.195,0.075l-0.194,0.075l-0.194,0.076l-0.193,0.076l-0.194,0.077l-0.192,0.078l-0.193,0.078l-0.193,0.079l-0.192,0.079l-0.191,0.08l-0.192,0.081l-0.191,0.081l-0.191,0.081l-0.191,0.083l-0.19,0.082l-0.19,0.084l-0.19,0.084l-0.19,0.084l-0.189,0.085l-0.189,0.086l-0.188,0.086l-0.188,0.086l-0.188,0.088l-0.188,0.087l-0.187,0.089l-0.188,0.089l-0.186,0.089l-0.187,0.09l-0.186,0.091l-0.186,0.091l-0.185,0.092l-0.185,0.092l-0.185,0.092l-0.185,0.094l-0.184,0.094l-0.184,0.094l-0.184,0.095l-0.183,0.095l-0.183,0.096l-0.183,0.097l-0.182,0.097l-0.182,0.098l-0.182,0.098l-0.181,0.099l-0.181,0.099l-0.181,0.1l-0.18,0.1l-0.181,0.101l-0.179,0.101l-0.18,0.102l-0.179,0.103l-0.179,0.103l-0.178,0.103l-0.178,0.104l-0.178,0.105l-0.177,0.105l-0.177,0.105l-0.177,0.106l-0.176,0.107l-0.176,0.107l-0.176,0.108l-0.175,0.108l-0.175,0.109l-0.175,0.109l-0.174,0.11l-0.174,0.11l-0.174,0.111l-0.143,0.091l-0.03,0.02l-0.173,0.111l-0.173,0.112l-0.173,0.113l-0.172,0.113l-0.171,0.113l-0.172,0.114l-0.171,0.115l-0.17,0.115l-0.171,0.115l-0.17,0.116l-0.169,0.117l-0.169,0.117l-0.169,0.117l-0.169,0.118l-0.168,0.119l-0.168,0.119l-0.167,0.119l-0.167,0.121l-0.167,0.12l-0.166,0.121l-0.166,0.121l-0.165,0.122l-0.165,0.123l-0.165,0.123l-0.165,0.123l-0.164,0.124l-0.163,0.125l-0.164,0.125l-0.162,0.125l-0.163,0.126l-0.162,0.126l-0.162,0.127l-0.161,0.127l-0.161,0.128l-0.161,0.128l-0.16,0.129l-0.16,0.129l-0.159,0.13l-0.159,0.13l-0.159,0.131l-0.158,0.131l-0.158,0.132l-0.157,0.132l-0.157,0.132l-0.157,0.133l-0.156,0.133l-0.156,0.134l-0.155,0.135l-0.155,0.135l-0.155,0.135l-0.154,0.136l-0.154,0.136l-0.153,0.137l-0.153,0.137l-0.153,0.137l-0.152,0.138l-0.152,0.139l-0.151,0.139l-0.151,0.139l-0.15,0.14l-0.15,0.14l-0.15,0.141l-0.149,0.141l-0.149,0.142l-0.149,0.142l-0.148,0.143l-0.147,0.143l-0.147,0.143l-0.147,0.144l-0.146,0.144l-0.146,0.145l-0.146,0.145l-0.145,0.146l-0.144,0.146l-0.144,0.147l-0.144,0.146l-0.143,0.148l-0.143,0.148l-0.142,0.148l-0.142,0.149l-0.142,0.149l-0.141,0.149l-0.141,0.15l-0.14,0.151l-0.14,0.15l-0.139,0.152l-0.139,0.151l-0.138,0.152l-0.138,0.153l-0.138,0.153l-0.137,0.153l-0.136,0.154l-0.137,0.154l-0.135,0.155l-0.136,0.155l-0.134,0.155l-0.135,0.156l-0.134,0.156l-0.133,0.157l-0.133,0.157l-0.133,0.157l-0.132,0.158l-0.131,0.158l-0.131,0.159l-0.131,0.159l-0.13,0.16l-0.13,0.16l-0.043,0.053l-0.086,0.107l-0.129,0.16l-0.129,0.161l-0.128,0.162l-0.127,0.161l-0.127,0.163l-0.127,0.162l-0.126,0.163l-0.126,0.164l-0.125,0.163l-0.124,0.164l-0.125,0.165l-0.123,0.165l-0.124,0.165l-0.122,0.166l-0.123,0.166l-0.121,0.166l-0.122,0.167l-0.121,0.167l-0.12,0.168l-0.12,0.168l-0.119,0.168l-0.119,0.169l-0.118,0.169l-0.118,0.17l-0.117,0.17l-0.117,0.17l-0.117,0.171l-0.115,0.171l-0.116,0.171l-0.115,0.172l-0.114,0.172l-0.114,0.172l-0.113,0.173l-0.113,0.173l-0.112,0.174l-0.112,0.174l-0.112,0.174l-0.11,0.175l-0.111,0.175l-0.11,0.175l-0.109,0.176l-0.109,0.176l-0.108,0.177l-0.108,0.177l-0.107,0.177l-0.106,0.177l-0.107,0.178l-0.105,0.179l-0.105,0.178l-0.105,0.179l-0.104,0.179l-0.104,0.18l-0.103,0.18l-0.102,0.18l-0.102,0.181l-0.102,0.181l-0.101,0.182l-0.1,0.181l-0.1,0.182l-0.099,0.183l-0.099,0.182l-0.098,0.183l-0.098,0.184l-0.097,0.184l-0.097,0.184l-0.096,0.184l-0.095,0.185l-0.095,0.185l-0.095,0.185l-0.094,0.186l-0.093,0.186l-0.093,0.186l-0.092,0.187l-0.092,0.187l-0.091,0.188l-0.091,0.187l-0.09,0.188l-0.089,0.189l-0.089,0.188l-0.089,0.189l-0.087,0.189l-0.088,0.19l-0.086,0.19l-0.087,0.19l-0.085,0.191l-0.085,0.191l-0.085,0.191l-0.084,0.191l-0.083,0.192l-0.083,0.192l-0.082,0.192l-0.082,0.193l-0.081,0.193l-0.08,0.194l-0.08,0.193l-0.079,0.194l-0.079,0.194l-0.078,0.195l-0.078,0.195l-0.077,0.195l-0.077,0.195l-0.075,0.196l-0.076,0.196l-0.074,0.196l-0.075,0.197l-0.073,0.197l-0.073,0.197l-0.073,0.197l-0.071,0.198l-0.072,0.198l-0.07,0.198l-0.07,0.199l-0.07,0.199l-0.068,0.199l-0.069,0.199l-0.067,0.2l-0.067,0.2l-0.067,0.2l-0.066,0.201l-0.065,0.201l-0.065,0.201l-0.064,0.201l-0.063,0.202l-0.063,0.202l-0.062,0.202l-0.062,0.203l-0.061,0.203l-0.06,0.203l-0.06,0.203l-0.059,0.203l-0.059,0.204l-0.058,0.204l-0.057,0.205l-0.057,0.204l-0.056,0.205l-0.056,0.205l-0.055,0.206l-0.054,0.205l-0.054,0.206l-0.053,0.206l-0.052,0.207l-0.052,0.207l-0.051,0.207l-0.05,0.207l-0.05,0.207l-0.05,0.208l-0.048,0.208l-0.048,0.208l-0.048,0.208l-0.046,0.209l-0.047,0.209l-0.045,0.209l-0.045,0.21l-0.044,0.209l-0.044,0.21l-0.043,0.21l-0.042,0.211l-0.042,0.21l-0.041,0.211l-0.04,0.211l-0.04,0.212l-0.039,0.211l-0.038,0.212l-0.038,0.212l-0.037,0.212l-0.037,0.213l-0.035,0.212l-0.036,0.213l-0.034,0.213l-0.034,0.214l-0.033,0.213l-0.033,0.214l-0.032,0.214l-0.031,0.215l-0.031,0.214l-0.029,0.215l-0.03,0.215l-0.028,0.215l-0.028,0.215l-0.027,0.216l-0.027,0.216l-0.026,0.216l-0.025,0.216l-0.025,0.216l-0.024,0.217l-0.023,0.217l-0.023,0.217l-0.021,0.217l-0.022,0.218l-0.02,0.217l-0.02,0.218l-0.019,0.218l-0.019,0.219l-0.018,0.218l-0.017,0.219l-0.016,0.219l-0.016,0.219l-0.015,0.219l-0.014,0.22l-0.014,0.219l-0.013,0.22l-0.012,0.22l-0.012,0.221l-0.011,0.22l-0.01,0.221l-0.01,0.221l-0.009,0.221l-0.008,0.221l-0.007,0.221l-0.007,0.222l-0.003,0.111l-0.003,0.111l-0.003,0.111l-0.003,0.111l-0.002,0.111l-0.001,0.029l-0.001,0.082l-0.002,0.111l-0.002,0.111l-0.002,0.111l-0.001,0.111l-0.002,0.112l-0.001,0.111l-0.001,0.112l-0.001,0.111l0,0.142l-0.001,0.141l0,0.142l0,0.142l0.001,0.142l0,0.141l0.001,0.142l0.002,0.141l0.001,0.142l0.002,0.142l0.002,0.141l0.003,0.142l0.002,0.141l0.003,0.142l0.004,0.141l0.003,0.142l0.004,0.141l0.004,0.141l0.005,0.142l0.005,0.141l0.005,0.142l0.005,0.141l0.006,0.141l0.006,0.141l0.006,0.142l0.007,0.141l0.006,0.141l0.007,0.141l0.008,0.141l0.008,0.141l0.007,0.141l0.009,0.141l0.008,0.141l0.009,0.141l0.009,0.141l0.01,0.141l0.009,0.141l0.01,0.141l0.011,0.141l0.01,0.141l0.011,0.14l0.011,0.141l0.012,0.141l0.011,0.14l0.012,0.141l0.013,0.141l0.012,0.14l0.013,0.141l0.013,0.14l0.014,0.14l0.013,0.141l0.014,0.14l0.015,0.141l0.014,0.14l0.015,0.14l0.015,0.14l0.016,0.14l0.016,0.141l0.016,0.14l0.016,0.14l0.017,0.14l0.016,0.14l0.018,0.14l0.017,0.139l0.018,0.14l0.018,0.14l0.018,0.14l0.019,0.139l0.019,0.14l0.019,0.14l0.019,0.139l0.02,0.14l0.02,0.139l0.02,0.14l0.021,0.139l0.021,0.139l0.021,0.14l0.022,0.139l0.021,0.139l0.022,0.139l0.023,0.139l0.022,0.139l0.023,0.139l0.023,0.139l0.024,0.139l0.023,0.139l0.024,0.138l0.025,0.139l0.024,0.139l0.025,0.138l0.025,0.139l0.026,0.138l0.025,0.139l0.026,0.138l0.027,0.138l0.026,0.139l0.027,0.138l0.027,0.138l0.027,0.138l0.028,0.138l0.028,0.138l0.028,0.138l0.029,0.138l0.029,0.138l0.029,0.137l0.029,0.138l0.03,0.138l0.03,0.137l0.03,0.138l0.03,0.137l0.031,0.137l0.031,0.138l0.032,0.137l0.031,0.137l0.032,0.137l0.032,0.137l0.033,0.137l0.033,0.137l0.033,0.137l0.033,0.137l0.033,0.136l0.034,0.137l0.034,0.137l0.035,0.136l0.035,0.136l0.035,0.137l0.035,0.136l0.035,0.136l0.036,0.136l0.036,0.136l0.037,0.136l0.036,0.136l0.037,0.136l0.037,0.136l0.038,0.136l0.038,0.135l0.038,0.136l0.038,0.135l0.039,0.136l0.038,0.135l0.04,0.135l0.039,0.135l0.04,0.135l0.04,0.135l0.04,0.135l0.041,0.135l0.04,0.135l0.041,0.135l0.021,0.066l0.021,0.068l0.042,0.135l0.042,0.134l0.042,0.134l0.043,0.135l0.042,0.134l0.044,0.134l0.043,0.134l0.044,0.134l0.044,0.134l0.044,0.133l0.044,0.134l0.045,0.134l0.045,0.133l0.046,0.134l0.045,0.133l0.046,0.133l0.046,0.133l0.047,0.133l0.046,0.133l0.047,0.133l0.048,0.133l0.047,0.133l0.048,0.132l0.048,0.133l0.048,0.132l0.049,0.132l0.049,0.133l0.049,0.132l0.05,0.132l0.049,0.132l0.05,0.132l0.051,0.131l0.05,0.132l0.051,0.132l0.051,0.131l0.051,0.132l0.052,0.131l0.052,0.131l0.052,0.131l0.053,0.131l0.052,0.131l0.053,0.131l0.054,0.131l0.053,0.13l0.054,0.131l0.054,0.13l0.054,0.13l0.055,0.131l0.055,0.13l0.055,0.13l0.055,0.13l0.056,0.129l0.056,0.13l0.056,0.13l0.057,0.129l0.057,0.129l0.057,0.13l0.057,0.129l0.058,0.129l0.058,0.129l0.058,0.129l0.058,0.128l0.059,0.129l0.059,0.129l0.059,0.128l0.059,0.128l0.06,0.128l0.06,0.129l0.06,0.128l0.061,0.127l0.061,0.128l0.061,0.128l0.061,0.127l0.062,0.128l0.062,0.127l0.062,0.127l0.062,0.127l0.063,0.127l0.063,0.127l0.063,0.127l0.064,0.126l0.064,0.127l0.064,0.126l0.064,0.127l0.065,0.126l0.064,0.126l0.066,0.126l0.065,0.125l0.066,0.126l0.065,0.126l0.067,0.125l0.066,0.125l0.067,0.126l0.067,0.125l0.067,0.125l0.068,0.124l0.067,0.125l0.068,0.125l0.069,0.124l0.068,0.124l0.069,0.125l0.011,0.02l4.801,0.013l19.394,0.048l8.852,0.009l8.196,-0.002l10.352,-0.042l12.319,-0.114l26.41,-0.461l29.245,-0.936l0.007,-0.012l0.066,-0.121l0.035,-0.063l0.032,-0.059l0.066,-0.122l0.066,-0.122l0.066,-0.122l0.065,-0.123l0.065,-0.122l0.065,-0.123l0.065,-0.122l0.064,-0.123l0.064,-0.123l0.064,-0.123l0.064,-0.123l0.063,-0.123l0.063,-0.124l0.063,-0.123l0.062,-0.124l0.063,-0.123l0.062,-0.124l0.062,-0.124l0.061,-0.124l0.061,-0.124l0.061,-0.125l0.061,-0.124l0.061,-0.125l0.06,-0.124l0.06,-0.125l0.06,-0.125l0.059,-0.125l0.059,-0.125l0.059,-0.125l0.059,-0.125l0.058,-0.126l0.058,-0.125l0.058,-0.126l0.058,-0.125l0.057,-0.126l0.057,-0.126l0.057,-0.126l0.057,-0.126l0.056,-0.127l0.056,-0.126l0.056,-0.127l0.055,-0.126l0.056,-0.127l0.055,-0.127l0.054,-0.126l0.055,-0.127l0.054,-0.128l0.054,-0.127l0.054,-0.127l0.053,-0.127l0.053,-0.128l0.053,-0.128l0.053,-0.127l0.052,-0.128l0.052,-0.128l0.052,-0.128l0.051,-0.128l0.052,-0.128l0.051,-0.129l0.051,-0.128l0.05,-0.129l0.05,-0.128l0.05,-0.129l0.05,-0.129l0.049,-0.128l0.05,-0.129l0.049,-0.13l0.048,-0.129l0.049,-0.129l0.048,-0.129l0.048,-0.13l0.047,-0.129l0.047,-0.13l0.047,-0.13l0.047,-0.129l0.047,-0.13l0.046,-0.13l0.046,-0.13l0.046,-0.131l0.045,-0.13l0.045,-0.13l0.045,-0.131l0.045,-0.13l0.044,-0.131l0.044,-0.131l0.044,-0.13l0.044,-0.131l0.043,-0.131l0.043,-0.131l0.043,-0.131l0.043,-0.132l0.042,-0.131l0.042,-0.131l0.041,-0.132l0.042,-0.131l0.041,-0.132l0.041,-0.132l0.041,-0.131l0.04,-0.132l0.04,-0.132l0.04,-0.132l0.039,-0.133l0.04,-0.132l0.039,-0.132l0.038,-0.132l0.039,-0.133l0.038,-0.132l0.038,-0.133l0.038,-0.133l0.037,-0.132l0.037,-0.133l0.037,-0.133l0.037,-0.133l0.036,-0.133l0.036,-0.133l0.036,-0.133l0.035,-0.134l0.035,-0.133l0.035,-0.134l0.035,-0.133l0.034,-0.134l0.034,-0.133l0.034,-0.134l0.034,-0.134l0.033,-0.134l0.033,-0.134l0.033,-0.134l0.033,-0.134l0.032,-0.134l0.032,-0.134l0.031,-0.134l0.032,-0.135l0.031,-0.134l0.031,-0.134l0.03,-0.135l0.031,-0.135l0.03,-0.134l0.029,-0.135l0.03,-0.135l0.029,-0.135l0.029,-0.135l0.029,-0.135l0.028,-0.135l0.028,-0.135l0.028,-0.135l0.028,-0.135l0.027,-0.135l0.027,-0.136l0.027,-0.135l0.026,-0.136l0.026,-0.135l0.026,-0.136l0.026,-0.135l0.025,-0.136l0.025,-0.136l0.025,-0.136l0.025,-0.136l0.024,-0.136l0.024,-0.136l0.024,-0.136l0.023,-0.136l0.023,-0.136l0.023,-0.136l0.023,-0.136l0.022,-0.137l0.022,-0.136l0.022,-0.137l0.021,-0.136l0.022,-0.137l0.02,-0.136l0.021,-0.137l0.021,-0.137l0.02,-0.136l0.019,-0.137l0.02,-0.137l0.019,-0.137l0.019,-0.137l0.019,-0.137l0.018,-0.137l0.019,-0.137l0.017,-0.137l0.018,-0.137l0.017,-0.138l0.017,-0.137l0.017,-0.137l0.017,-0.137l0.016,-0.138l0.016,-0.137l0.015,-0.138l0.016,-0.137l0.015,-0.138l0.015,-0.138l0.014,-0.137l0.014,-0.138l0.014,-0.138l0.014,-0.138l0.013,-0.137l0.013,-0.138l0.013,-0.138l0.013,-0.138l0.012,-0.138l0.012,-0.138l0.012,-0.138l0.011,-0.138l0.011,-0.138l0.011,-0.139l0.011,-0.138l0.01,-0.138l0.01,-0.138l0.01,-0.139l0.009,-0.138l0.009,-0.138l0.009,-0.139l0.009,-0.138l0.008,-0.139l0.008,-0.138l0.008,-0.139l0.007,-0.138l0.008,-0.139l0.007,-0.139l0.006,-0.138l0.006,-0.139l0.007,-0.139l0.005,-0.139l0.006,-0.138l0.005,-0.139l0.005,-0.139l0.005,-0.139l0.004,-0.139l0.004,-0.139l0.004,-0.139l0.003,-0.139l0.003,-0.139l0.003,-0.139l0.003,-0.139l0.002,-0.139l0.002,-0.139l0.002,-0.139l0.002,-0.139l0.001,-0.14l0.001,-0.139l0,-0.139l0.001,-0.11l0,-0.109l0,-0.109l-0.001,-0.11l0,-0.109l0,-0.109l-0.001,-0.11l-0.001,-0.109l-0.001,-0.109l-0.001,-0.109l-0.002,-0.109l-0.002,-0.109l-0.001,-0.109l-0.002,-0.108l-0.005,-0.219l-0.005,-0.218l-0.006,-0.217l-0.006,-0.218l-0.007,-0.217l-0.008,-0.217l-0.009,-0.217l-0.009,-0.216l-0.01,-0.217l-0.01,-0.216l-0.011,-0.216l-0.012,-0.216l-0.013,-0.215l-0.013,-0.216l-0.014,-0.215l-0.015,-0.216l-0.015,-0.215l-0.016,-0.214l-0.017,-0.215l-0.017,-0.214l-0.018,-0.215l-0.019,-0.214l-0.019,-0.213l-0.02,-0.214l-0.02,-0.214l-0.022,-0.213l-0.022,-0.213l-0.022,-0.213l-0.023,-0.213l-0.024,-0.212l-0.025,-0.212l-0.025,-0.212l-0.026,-0.212l-0.027,-0.212l-0.027,-0.212l-0.028,-0.211l-0.028,-0.211l-0.029,-0.211l-0.03,-0.21l-0.03,-0.211l-0.031,-0.21l-0.032,-0.21l-0.033,-0.21l-0.033,-0.21l-0.033,-0.209l-0.035,-0.209l-0.034,-0.209l-0.036,-0.209l-0.036,-0.209l-0.037,-0.208l-0.038,-0.208l-0.038,-0.208l-0.038,-0.208l-0.04,-0.207l-0.04,-0.207l-0.041,-0.208l-0.041,-0.206l-0.042,-0.207l-0.042,-0.206l-0.043,-0.206l-0.044,-0.206l-0.045,-0.206l-0.045,-0.205l-0.045,-0.206l-0.047,-0.205l-0.046,-0.204l-0.048,-0.205l-0.048,-0.204l-0.049,-0.204l-0.049,-0.204l-0.05,-0.204l-0.051,-0.203l-0.051,-0.203l-0.052,-0.203l-0.052,-0.202l-0.053,-0.203l-0.054,-0.202l-0.054,-0.202l-0.055,-0.201l-0.056,-0.202l-0.056,-0.201l-0.056,-0.201l-0.058,-0.201l-0.058,-0.2l-0.058,-0.2l-0.059,-0.2l-0.06,-0.2l-0.06,-0.199l-0.061,-0.199l-0.062,-0.199l-0.062,-0.199l-0.062,-0.198l-0.064,-0.198l-0.064,-0.198l-0.064,-0.197l-0.065,-0.198l-0.066,-0.197l-0.066,-0.197l-0.067,-0.196l-0.067,-0.196l-0.068,-0.196l-0.069,-0.196l-0.069,-0.195l-0.07,-0.196l-0.07,-0.194l-0.071,-0.195l-0.071,-0.194l-0.072,-0.194l-0.073,-0.194l-0.073,-0.194l-0.074,-0.193l-0.074,-0.193l-0.075,-0.193l-0.076,-0.192l-0.076,-0.192l-0.076,-0.192l-0.078,-0.192l-0.077,-0.191l-0.079,-0.191l-0.079,-0.191l-0.079,-0.19l-0.08,-0.19l-0.081,-0.19l-0.081,-0.189l-0.082,-0.19l-0.082,-0.189l-0.083,-0.188l-0.083,-0.189l-0.084,-0.188l-0.085,-0.187l-0.085,-0.188l-0.085,-0.187l-0.087,-0.187l-0.086,-0.186l-0.088,-0.187l-0.087,-0.186l-0.089,-0.185l-0.089,-0.185l-0.089,-0.186l-0.09,-0.184l-0.091,-0.185l-0.091,-0.184l-0.092,-0.184l-0.092,-0.183l-0.092,-0.183l-0.094,-0.183l-0.093,-0.183l-0.095,-0.182l-0.095,-0.182l-0.095,-0.181l-0.096,-0.181l-0.097,-0.181l-0.097,-0.181l-0.097,-0.18l-0.098,-0.18l-0.099,-0.18l-0.099,-0.179l-0.1,-0.179l-0.1,-0.179l-0.1,-0.178l-0.102,-0.178l-0.101,-0.178l-0.103,-0.177l-0.103,-0.177l-0.103,-0.177l-0.104,-0.176l-0.104,-0.176l-0.105,-0.176l-0.105,-0.175l-0.106,-0.175l-0.107,-0.175l-0.107,-0.174l-0.107,-0.174l-0.108,-0.173l-0.108,-0.174l-0.109,-0.173l-0.11,-0.172l-0.11,-0.172l-0.11,-0.172l-0.111,-0.172l-0.112,-0.171l-0.112,-0.171l-0.039,-0.059l-0.073,-0.111l-0.113,-0.17l-0.113,-0.17l-0.114,-0.17l-0.115,-0.169l-0.115,-0.169l-0.115,-0.168l-0.116,-0.168l-0.116,-0.168l-0.117,-0.167l-0.117,-0.167l-0.118,-0.166l-0.118,-0.167l-0.119,-0.166l-0.119,-0.165l-0.12,-0.165l-0.12,-0.165l-0.121,-0.164l-0.121,-0.164l-0.122,-0.164l-0.122,-0.163l-0.123,-0.163l-0.123,-0.163l-0.124,-0.162l-0.124,-0.161l-0.124,-0.162l-0.125,-0.161l-0.126,-0.16l-0.126,-0.161l-0.126,-0.159l-0.127,-0.16l-0.128,-0.159l-0.128,-0.159l-0.128,-0.158l-0.129,-0.158l-0.129,-0.157l-0.13,-0.157l-0.13,-0.157l-0.131,-0.156l-0.131,-0.156l-0.131,-0.156l-0.132,-0.155l-0.133,-0.155l-0.133,-0.154l-0.133,-0.154l-0.134,-0.153l-0.135,-0.154l-0.134,-0.152l-0.136,-0.153l-0.135,-0.152l-0.136,-0.151l-0.137,-0.151l-0.137,-0.151l-0.138,-0.15l-0.138,-0.15l-0.138,-0.149l-0.139,-0.149l-0.139,-0.149l-0.14,-0.148l-0.14,-0.148l-0.14,-0.147l-0.141,-0.147l-0.142,-0.147l-0.142,-0.146l-0.142,-0.146l-0.143,-0.145l-0.143,-0.145l-0.144,-0.144l-0.144,-0.144l-0.144,-0.144l-0.145,-0.143l-0.146,-0.143l-0.145,-0.142l-0.147,-0.142l-0.146,-0.141l-0.147,-0.141l-0.148,-0.141l-0.148,-0.14l-0.148,-0.139l-0.149,-0.14l-0.149,-0.138l-0.15,-0.139l-0.15,-0.138l-0.15,-0.137l-0.151,-0.137l-0.151,-0.137l-0.152,-0.136l-0.152,-0.136l-0.152,-0.135l-0.153,-0.135l-0.154,-0.134l-0.153,-0.134l-0.154,-0.133l-0.155,-0.133l-0.155,-0.133l-0.155,-0.132l-0.156,-0.131l-0.156,-0.132l-0.157,-0.13l-0.157,-0.131l-0.157,-0.129l-0.158,-0.13l-0.158,-0.128l-0.158,-0.129l-0.159,-0.128l-0.159,-0.127l-0.16,-0.127l-0.16,-0.127l-0.161,-0.126l-0.161,-0.125l-0.161,-0.125l-0.161,-0.125l-0.163,-0.124l-0.162,-0.124l-0.163,-0.123l-0.163,-0.123l-0.163,-0.122l-0.164,-0.122l-0.165,-0.121l-0.164,-0.121l-0.165,-0.12l-0.166,-0.12l-0.166,-0.12l-0.166,-0.118l-0.167,-0.119l-0.166,-0.118l-0.168,-0.117l-0.167,-0.117l-0.169,-0.117l-0.168,-0.115l-0.169,-0.116l-0.169,-0.115l-0.169,-0.114l-0.17,-0.114l-0.171,-0.114l-0.17,-0.113l-0.171,-0.112l-0.171,-0.112l-0.172,-0.112l-0.172,-0.111l-0.173,-0.11l-0.172,-0.11l-0.173,-0.11l-0.174,-0.108l-0.174,-0.109l-0.174,-0.108l-0.174,-0.107l-0.175,-0.107l-0.175,-0.107l-0.176,-0.105l-0.176,-0.106l-0.176,-0.105l-0.177,-0.104l-0.177,-0.104l-0.177,-0.103l-0.178,-0.103l-0.178,-0.102l-0.178,-0.102l-0.178,-0.101l-0.179,-0.101l-0.18,-0.1l-0.179,-0.1l-0.18,-0.099l-0.181,-0.098l-0.18,-0.098l-0.181,-0.098l-0.182,-0.097l-0.181,-0.096l-0.182,-0.096l-0.182,-0.096l-0.183,-0.095l-0.183,-0.094l-0.183,-0.094l-0.184,-0.093l-0.184,-0.093l-0.184,-0.092l-0.184,-0.091l-0.185,-0.092l-0.185,-0.09l-0.186,-0.09l-0.186,-0.09l-0.186,-0.088l-0.186,-0.089l-0.187,-0.088l-0.187,-0.087l-0.187,-0.087l-0.188,-0.086l-0.188,-0.085l-0.188,-0.085l-0.189,-0.085l-0.189,-0.084l-0.189,-0.083l-0.189,-0.083l-0.19,-0.082l-0.19,-0.082l-0.191,-0.081l-0.19,-0.081l-0.191,-0.08l-0.192,-0.079l-0.191,-0.079l-0.192,-0.078l-0.192,-0.078l-0.193,-0.077l-0.192,-0.077l-0.193,-0.076l-0.194,-0.075l-0.193,-0.075l-0.194,-0.075l-0.194,-0.073l-0.195,-0.074l-0.195,-0.072l-0.195,-0.072l-0.195,-0.072l-0.196,-0.07l-0.195,-0.071l-0.197,-0.069l-0.196,-0.069l-0.197,-0.069l-0.197,-0.068l-0.197,-0.067l-0.198,-0.067l-0.163,-0.055l-0.034,-0.011l-0.198,-0.066l-0.199,-0.065l-0.198,-0.065l-0.199,-0.064l-0.199,-0.064l-0.199,-0.062l-0.2,-0.063l-0.2,-0.061l-0.2,-0.061l-0.201,-0.061l-0.2,-0.06l-0.201,-0.059l-0.201,-0.059l-0.202,-0.058l-0.202,-0.057l-0.202,-0.057l-0.202,-0.056l-0.202,-0.056l-0.203,-0.055l-0.203,-0.055l-0.203,-0.053l-0.204,-0.054l-0.204,-0.052l-0.204,-0.052l-0.204,-0.052l-0.204,-0.05l-0.205,-0.05l-0.205,-0.05l-0.205,-0.049l-0.206,-0.048l-0.206,-0.048l-0.206,-0.047l-0.206,-0.046l-0.206,-0.046l-0.207,-0.045l-0.207,-0.045l-0.207,-0.044l-0.207,-0.043l-0.208,-0.043l-0.208,-0.042l-0.208,-0.041l-0.209,-0.041l-0.208,-0.04l-0.209,-0.039l-0.209,-0.039l-0.209,-0.038l-0.21,-0.038l-0.209,-0.037l-0.21,-0.036l-0.211,-0.036l-0.21,-0.035l-0.211,-0.034l-0.21,-0.034l-0.212,-0.033l-0.211,-0.032l-0.211,-0.032l-0.212,-0.031l-0.212,-0.031l-0.212,-0.029l-0.213,-0.03l-0.212,-0.028l-0.213,-0.028l-0.213,-0.027l-0.213,-0.027l-0.214,-0.026l-0.213,-0.025l-0.214,-0.024l-0.214,-0.024l-0.214,-0.024l-0.215,-0.022l-0.215,-0.022l-0.214,-0.021l-0.215,-0.021l-0.216,-0.02l-0.215,-0.019l-0.216,-0.019l-0.216,-0.017l-0.216,-0.018l-0.216,-0.016l-0.217,-0.016l-0.216,-0.015l-0.217,-0.015l-0.217,-0.014l-0.217,-0.013l-0.218,-0.012l-0.218,-0.012l-0.217,-0.011l-0.218,-0.011l-0.219,-0.009l-0.218,-0.01l-0.218,-0.008l-0.219,-0.008l-0.219,-0.007l-0.22,-0.006l-0.109,-0.003l-0.11,-0.003l-0.109,-0.002l-0.11,-0.003l-0.11,-0.002l-0.11,-0.002l-0.11,-0.002l-0.109,-0.001l-0.11,-0.002l-0.11,-0.001l-0.111,-0.001l-0.11,-0.001l-0.11,-0.001l-0.11,-0.001l-0.11,0l-0.11,-0.001l-0.11,0l-0.111,0Z" style="fill:#fff;"/><g><path d="M16.914,124.927c0,0.938 -0.163,1.801 -0.489,2.589c-0.326,0.788 -0.775,1.466 -1.348,2.036c-0.573,0.569 -1.253,1.015 -2.041,1.337c-0.788,0.322 -1.643,0.483 -2.567,0.483l-7.541,0c-0.201,0 -0.387,-0.035 -0.559,-0.107c-0.172,-0.072 -0.32,-0.17 -0.446,-0.295c-0.125,-0.126 -0.223,-0.274 -0.295,-0.446c-0.072,-0.172 -0.108,-0.358 -0.108,-0.559l0,-12.59c0,-0.193 0.036,-0.376 0.108,-0.547c0.072,-0.172 0.17,-0.323 0.295,-0.452c0.126,-0.129 0.274,-0.229 0.446,-0.3c0.172,-0.072 0.358,-0.108 0.559,-0.108l7.541,0c0.924,0 1.779,0.161 2.567,0.484c0.788,0.322 1.468,0.768 2.041,1.337c0.573,0.569 1.022,1.25 1.348,2.041c0.326,0.791 0.489,1.652 0.489,2.583l0,2.514Zm-2.793,-2.514c0,-0.544 -0.088,-1.042 -0.263,-1.493c-0.176,-0.451 -0.424,-0.836 -0.747,-1.155c-0.322,-0.318 -0.707,-0.565 -1.154,-0.741c-0.448,-0.175 -0.944,-0.263 -1.488,-0.263l-6.156,0l0,9.818l6.156,0c0.544,0 1.04,-0.087 1.488,-0.263c0.447,-0.175 0.832,-0.422 1.154,-0.741c0.323,-0.319 0.571,-0.702 0.747,-1.149c0.175,-0.448 0.263,-0.947 0.263,-1.499l0,-2.514Z" style="fill:#fff;fill-rule:nonzero;"/><path d="M40.22,125.142c0,0.938 -0.161,1.801 -0.483,2.589c-0.322,0.788 -0.77,1.468 -1.343,2.041c-0.573,0.573 -1.251,1.019 -2.036,1.337c-0.784,0.319 -1.638,0.478 -2.562,0.478l-3.781,0c-0.924,0 -1.779,-0.159 -2.567,-0.478c-0.788,-0.318 -1.468,-0.764 -2.041,-1.337c-0.573,-0.573 -1.022,-1.253 -1.348,-2.041c-0.326,-0.788 -0.489,-1.651 -0.489,-2.589l0,-2.943c0,-0.931 0.163,-1.793 0.489,-2.584c0.326,-0.791 0.775,-1.472 1.348,-2.041c0.573,-0.569 1.253,-1.015 2.041,-1.337c0.788,-0.323 1.643,-0.484 2.567,-0.484l3.781,0c0.924,0 1.778,0.161 2.562,0.484c0.785,0.322 1.463,0.768 2.036,1.337c0.573,0.569 1.021,1.25 1.343,2.041c0.322,0.791 0.483,1.653 0.483,2.584l0,2.943Zm-2.793,-2.943c0,-0.552 -0.087,-1.051 -0.263,-1.499c-0.175,-0.448 -0.422,-0.831 -0.741,-1.149c-0.319,-0.319 -0.702,-0.566 -1.149,-0.742c-0.448,-0.175 -0.94,-0.263 -1.478,-0.263l-3.781,0c-0.544,0 -1.04,0.088 -1.488,0.263c-0.447,0.176 -0.832,0.423 -1.154,0.742c-0.323,0.318 -0.571,0.701 -0.747,1.149c-0.175,0.448 -0.263,0.947 -0.263,1.499l0,2.943c0,0.551 0.088,1.051 0.263,1.498c0.176,0.448 0.424,0.831 0.747,1.15c0.322,0.319 0.707,0.566 1.154,0.741c0.448,0.176 0.944,0.263 1.488,0.263l3.76,0c0.544,0 1.04,-0.087 1.488,-0.263c0.447,-0.175 0.832,-0.422 1.155,-0.741c0.322,-0.319 0.571,-0.702 0.746,-1.15c0.176,-0.447 0.263,-0.947 0.263,-1.498l0,-2.943Z" style="fill:#fff;fill-rule:nonzero;"/><path d="M61.174,131.372l-10.076,0c-0.258,0 -0.535,-0.03 -0.833,-0.091c-0.297,-0.061 -0.591,-0.156 -0.881,-0.285c-0.29,-0.128 -0.567,-0.295 -0.832,-0.499c-0.265,-0.204 -0.5,-0.451 -0.704,-0.741c-0.204,-0.29 -0.367,-0.627 -0.488,-1.01c-0.122,-0.383 -0.183,-0.815 -0.183,-1.294l0,-7.563c0,-0.258 0.03,-0.535 0.091,-0.832c0.061,-0.298 0.156,-0.591 0.285,-0.881c0.129,-0.29 0.297,-0.568 0.505,-0.833c0.207,-0.265 0.456,-0.499 0.746,-0.703c0.29,-0.205 0.625,-0.368 1.005,-0.489c0.379,-0.122 0.809,-0.183 1.289,-0.183l10.076,0l0,2.793l-10.076,0c-0.365,0 -0.645,0.097 -0.838,0.29c-0.193,0.193 -0.29,0.48 -0.29,0.86l0,7.541c0,0.358 0.098,0.635 0.295,0.832c0.197,0.197 0.475,0.295 0.833,0.295l10.076,0l0,2.793Z" style="fill:#fff;fill-rule:nonzero;"/><path d="M71.031,122.263l9.808,0l0,-6.295l2.793,0l0,15.404l-2.793,0l0,-6.294l-9.808,0l0,6.294l-2.793,0l0,-15.404l2.793,0l0,6.295Z" style="fill:#fff;fill-rule:nonzero;"/><path d="M106.412,131.372l-2.793,0l0,-3.781l-9.819,0l0,3.781l-2.793,0l0,-7.702c0,-1.124 0.194,-2.159 0.58,-3.104c0.387,-0.946 0.924,-1.758 1.612,-2.439c0.687,-0.68 1.5,-1.21 2.438,-1.59c0.938,-0.379 1.962,-0.569 3.072,-0.569l6.295,0c0.194,0 0.376,0.036 0.548,0.108c0.172,0.071 0.322,0.171 0.451,0.3c0.129,0.129 0.229,0.28 0.301,0.452c0.072,0.171 0.108,0.354 0.108,0.547l0,13.997Zm-12.612,-6.574l9.819,0l0,-6.037l-4.91,0c-0.086,0 -0.266,0.013 -0.542,0.038c-0.276,0.025 -0.595,0.087 -0.956,0.188c-0.362,0.1 -0.743,0.254 -1.144,0.462c-0.401,0.207 -0.77,0.494 -1.107,0.859c-0.336,0.365 -0.614,0.822 -0.832,1.37c-0.219,0.547 -0.328,1.212 -0.328,1.992l0,1.128Z" style="fill:#fff;fill-rule:nonzero;"/><path d="M127.978,118.761l-6.156,0l0,12.611l-2.793,0l0,-12.611l-6.166,0l0,-2.793l15.115,0l0,2.793Z" style="fill:#fff;fill-rule:nonzero;"/><path d="M150.381,125.142c0,0.938 -0.161,1.801 -0.483,2.589c-0.322,0.788 -0.77,1.468 -1.343,2.041c-0.573,0.573 -1.251,1.019 -2.035,1.337c-0.785,0.319 -1.639,0.478 -2.562,0.478l-3.782,0c-0.923,0 -1.779,-0.159 -2.567,-0.478c-0.788,-0.318 -1.468,-0.764 -2.041,-1.337c-0.573,-0.573 -1.022,-1.253 -1.348,-2.041c-0.326,-0.788 -0.489,-1.651 -0.489,-2.589l0,-2.943c0,-0.931 0.163,-1.793 0.489,-2.584c0.326,-0.791 0.775,-1.472 1.348,-2.041c0.573,-0.569 1.253,-1.015 2.041,-1.337c0.788,-0.323 1.644,-0.484 2.567,-0.484l3.782,0c0.923,0 1.777,0.161 2.562,0.484c0.784,0.322 1.462,0.768 2.035,1.337c0.573,0.569 1.021,1.25 1.343,2.041c0.322,0.791 0.483,1.653 0.483,2.584l0,2.943Zm-2.793,-2.943c0,-0.552 -0.087,-1.051 -0.263,-1.499c-0.175,-0.448 -0.422,-0.831 -0.741,-1.149c-0.319,-0.319 -0.702,-0.566 -1.149,-0.742c-0.448,-0.175 -0.94,-0.263 -1.477,-0.263l-3.782,0c-0.544,0 -1.04,0.088 -1.487,0.263c-0.448,0.176 -0.833,0.423 -1.155,0.742c-0.322,0.318 -0.571,0.701 -0.747,1.149c-0.175,0.448 -0.263,0.947 -0.263,1.499l0,2.943c0,0.551 0.088,1.051 0.263,1.498c0.176,0.448 0.425,0.831 0.747,1.15c0.322,0.319 0.707,0.566 1.155,0.741c0.447,0.176 0.943,0.263 1.487,0.263l3.76,0c0.544,0 1.04,-0.087 1.488,-0.263c0.447,-0.175 0.832,-0.422 1.155,-0.741c0.322,-0.319 0.571,-0.702 0.746,-1.15c0.176,-0.447 0.263,-0.947 0.263,-1.498l0,-2.943Z" style="fill:#fff;fill-rule:nonzero;"/></g></svg>