<?xml version="1.0" encoding="UTF-8" standalone="no"?><!DOCTYPE svg PUBLIC "-//W3C//DTD SVG 1.1//EN" "http://www.w3.org/Graphics/SVG/1.1/DTD/svg11.dtd"><svg width="100%" height="100%" viewBox="0 0 15 13" version="1.1" xmlns="http://www.w3.org/2000/svg" xmlns:xlink="http://www.w3.org/1999/xlink" xml:space="preserve" xmlns:serif="http://www.serif.com/" style="fill-rule:evenodd;clip-rule:evenodd;stroke-linejoin:round;stroke-miterlimit:1.41421;"><path d="M1.752,7.916c0,0 2.4,-1.015 3.435,-1.057c0.587,-0.024 2.057,0.413 2.501,0.569c0.126,0.044 0.173,0.268 0.162,0.366c-0.01,0.098 -0.118,0.218 -0.223,0.224c-0.332,0.017 -1.447,-0.129 -1.769,-0.122c-0.076,0.001 -0.149,0.101 -0.162,0.162c-0.014,0.061 0.009,0.193 0.081,0.204c0.339,0.05 1.46,0.122 1.951,0.101c0.34,-0.014 0.886,-0.195 0.997,-0.223c0.565,-0.145 1.965,-0.597 2.398,-0.651c0.127,-0.016 0.183,0.217 0.204,0.325c0.02,0.109 0.02,0.28 -0.082,0.326c-0.646,0.288 -3.454,1.256 -3.797,1.402c-0.273,0.116 -2.341,-0.325 -3.155,-0.366c-0.577,-0.028 -1.728,0.122 -1.728,0.122" style="fill:none;stroke:#fff;stroke-width:0.2px;stroke-linecap:round;stroke-miterlimit:1.5;"/><path d="M7.102,3.221c0.519,-1.195 1.556,-1.195 2.075,-0.755c0.519,0.439 0.519,1.319 0,2.199c-0.363,0.659 -1.297,1.319 -2.075,1.759c-0.778,-0.44 -1.712,-1.1 -2.075,-1.759c-0.519,-0.88 -0.519,-1.76 0,-2.199c0.519,-0.44 1.556,-0.44 2.075,0.755Z" style="fill:#ff8181;"/><path d="M13.165,10.763l-0.055,0.044l-0.062,0.036l-0.066,0.026l-0.07,0.016l-0.071,0.005l-0.04,-0.002l-2.944,-0.155l-2.54,-0.073l-1.185,-0.018l-0.996,-0.007l-0.788,0l-0.851,0.001l-1.865,0.008l-0.269,0.001l-0.035,-0.002l-0.033,-0.007l-0.033,-0.013l-0.03,-0.017l-0.027,-0.022l-0.024,-0.025l-0.019,-0.029l0,0.001l-0.028,-0.048l-0.028,-0.049l-0.028,-0.05l-0.027,-0.049l-0.026,-0.05l-0.027,-0.05l-0.025,-0.05l-0.026,-0.05l-0.025,-0.05l-0.024,-0.051l-0.025,-0.05l-0.023,-0.051l-0.024,-0.051l-0.023,-0.052l-0.022,-0.051l-0.022,-0.052l-0.022,-0.052l-0.021,-0.051l-0.021,-0.053l-0.02,-0.052l-0.02,-0.052l-0.019,-0.053l-0.019,-0.053l-0.019,-0.053l-0.018,-0.053l-0.018,-0.053l-0.015,-0.046l-0.002,-0.007l-0.017,-0.053l-0.017,-0.054l-0.016,-0.054l-0.015,-0.054l-0.016,-0.054l-0.014,-0.054l-0.015,-0.054l-0.014,-0.054l-0.013,-0.055l-0.013,-0.054l-0.013,-0.055l-0.012,-0.055l-0.011,-0.054l-0.012,-0.055l-0.01,-0.056l-0.011,-0.055l-0.01,-0.055l-0.009,-0.055l-0.009,-0.056l-0.009,-0.055l-0.008,-0.056l-0.008,-0.056l-0.007,-0.056l-0.006,-0.056l-0.007,-0.056l-0.006,-0.056l-0.005,-0.056l-0.005,-0.056l-0.004,-0.056l-0.004,-0.056l-0.004,-0.057l-0.003,-0.056l-0.003,-0.057l-0.002,-0.056l-0.002,-0.057l-0.001,-0.056l-0.001,-0.057l0,-0.045l0,-0.044l0,-0.008l0,-0.036l0.001,-0.045l0,-0.044l0.001,-0.044l0.002,-0.044l0.001,-0.044l0.002,-0.044l0.002,-0.044l0.003,-0.044l0.003,-0.044l0.003,-0.044l0.003,-0.043l0.003,-0.044l0.004,-0.043l0.004,-0.044l0.005,-0.043l0.004,-0.044l0.005,-0.043l0.005,-0.043l0.006,-0.043l0.005,-0.043l0.006,-0.043l0.006,-0.043l0.007,-0.043l0.007,-0.042l0.007,-0.043l0.007,-0.042l0.007,-0.043l0.008,-0.042l0.008,-0.043l0.008,-0.042l0.009,-0.042l0.009,-0.042l0.009,-0.042l0.009,-0.042l0.01,-0.041l0.009,-0.042l0.01,-0.042l0.011,-0.041l0.01,-0.041l0.011,-0.042l0.011,-0.041l0.011,-0.041l0.012,-0.041l0.012,-0.041l0.012,-0.041l0.012,-0.04l0.012,-0.041l0.013,-0.04l0.013,-0.041l0.013,-0.04l0.014,-0.04l0.014,-0.04l0.014,-0.04l0.014,-0.04l0.014,-0.04l0.015,-0.039l0.015,-0.04l0.015,-0.039l0.015,-0.04l0.016,-0.039l0.016,-0.039l0.016,-0.039l0.016,-0.039l0.016,-0.039l0.017,-0.038l0.017,-0.039l0.017,-0.038l0.018,-0.038l0.017,-0.038l0.018,-0.038l0.018,-0.038l0.019,-0.038l0.018,-0.038l0.019,-0.037l0.019,-0.038l0.019,-0.037l0.02,-0.037l0.019,-0.037l0.02,-0.037l0.02,-0.037l0.02,-0.036l0.021,-0.037l0.021,-0.036l0.021,-0.037l0.021,-0.036l0.021,-0.036l0.022,-0.035l0.021,-0.036l0.022,-0.036l0.023,-0.035l0.022,-0.035l0.023,-0.036l0.022,-0.034l0.023,-0.035l0.024,-0.035l0.023,-0.035l0.024,-0.034l0.024,-0.034l0.024,-0.034l0.024,-0.034l0.024,-0.034l0.025,-0.034l0.025,-0.033l0.025,-0.034l0.025,-0.033l0.021,-0.028l0.004,-0.005l0.026,-0.033l0.026,-0.033l0.026,-0.032l0.026,-0.033l0.027,-0.032l0.026,-0.032l0.027,-0.032l0.027,-0.032l0.027,-0.031l0.028,-0.032l0.027,-0.031l0.028,-0.031l0.028,-0.031l0.028,-0.031l0.028,-0.031l0.029,-0.03l0.028,-0.031l0.029,-0.03l0.029,-0.03l0.03,-0.029l0.029,-0.03l0.03,-0.03l0.029,-0.029l0.03,-0.029l0.03,-0.029l0.031,-0.029l0.03,-0.028l0.031,-0.029l0.03,-0.028l0.031,-0.028l0.031,-0.028l0.032,-0.027l0.031,-0.028l0.032,-0.027l0.032,-0.027l0.032,-0.027l0.032,-0.027l0.032,-0.027l0.033,-0.026l0.032,-0.026l0.033,-0.026l0.033,-0.026l0.033,-0.026l0.033,-0.025l0.034,-0.025l0.033,-0.025l0.034,-0.025l0.034,-0.025l0.034,-0.024l0.034,-0.025l0.035,-0.024l0.034,-0.024l0.035,-0.023l0.02,-0.014l0.015,-0.01l0.035,-0.023l0.035,-0.023l0.035,-0.023l0.036,-0.022l0.036,-0.023l0.035,-0.022l0.036,-0.022l0.036,-0.021l0.037,-0.022l0.036,-0.021l0.037,-0.021l0.036,-0.021l0.037,-0.021l0.037,-0.02l0.037,-0.021l0.037,-0.02l0.038,-0.019l0.037,-0.02l0.038,-0.019l0.038,-0.02l0.038,-0.019l0.038,-0.018l0.038,-0.019l0.038,-0.018l0.038,-0.018l0.039,-0.018l0.039,-0.017l0.039,-0.018l0.038,-0.017l0.04,-0.017l0.039,-0.017l0.039,-0.016l0.04,-0.016l0.039,-0.016l0.04,-0.016l0.04,-0.016l0.04,-0.015l0.04,-0.015l0.04,-0.015l0.04,-0.014l0.041,-0.015l0.04,-0.014l0.041,-0.014l0.041,-0.013l0.04,-0.014l0.041,-0.013l0.042,-0.013l0.041,-0.012l0.041,-0.013l0.042,-0.012l0.014,-0.004l0.027,-0.008l0.042,-0.011l0.042,-0.011l0.042,-0.011l0.042,-0.011l0.042,-0.011l0.042,-0.01l0.042,-0.01l0.043,-0.009l0.042,-0.01l0.043,-0.009l0.042,-0.009l0.043,-0.009l0.043,-0.008l0.043,-0.008l0.043,-0.008l0.043,-0.008l0.044,-0.007l0.043,-0.007l0.044,-0.007l0.043,-0.007l0.044,-0.006l0.043,-0.006l0.044,-0.006l0.044,-0.005l0.044,-0.006l0.044,-0.005l0.044,-0.004l0.045,-0.005l0.044,-0.004l0.044,-0.004l0.045,-0.003l0.044,-0.004l0.045,-0.003l0.045,-0.002l0.044,-0.003l0.045,-0.002l0.045,-0.002l0.045,-0.002l0.045,-0.001l0.045,-0.001l0.046,-0.001l0.045,0l0.045,-0.001l0.045,0.001l0.046,0l0.045,0.001l0.045,0l0.045,0.002l0.045,0.001l0.044,0.002l0.045,0.002l0.045,0.002l0.045,0.003l0.044,0.003l0.045,0.003l0.044,0.004l0.044,0.003l0.045,0.004l0.044,0.005l0.044,0.004l0.044,0.005l0.044,0.005l0.044,0.005l0.044,0.006l0.044,0.006l0.043,0.006l0.044,0.007l0.043,0.006l0.044,0.007l0.043,0.008l0.043,0.007l0.044,0.008l0.043,0.008l0.043,0.008l0.042,0.009l0.043,0.009l0.043,0.009l0.043,0.009l0.042,0.01l0.043,0.01l0.042,0.01l0.042,0.01l0.042,0.011l0.042,0.011l0.042,0.011l0.042,0.011l0.042,0.012l0.042,0.012l0.041,0.012l0.042,0.012l0.041,0.013l0.041,0.013l0.024,0.007l0.017,0.006l0.041,0.013l0.041,0.014l0.041,0.014l0.041,0.014l0.04,0.015l0.04,0.014l0.041,0.015l0.04,0.015l0.04,0.016l0.04,0.015l0.04,0.016l0.04,0.016l0.039,0.017l0.04,0.016l0.039,0.017l0.039,0.017l0.04,0.018l0.039,0.017l0.038,0.018l0.039,0.018l0.039,0.018l0.038,0.018l0.039,0.019l0.038,0.019l0.038,0.019l0.038,0.019l0.038,0.02l0.038,0.02l0.037,0.02l0.038,0.02l0.037,0.02l0.037,0.021l0.037,0.021l0.037,0.021l0.037,0.021l0.037,0.022l0.036,0.021l0.037,0.022l0.036,0.022l0.036,0.023l0.036,0.022l0.036,0.023l0.035,0.023l0.036,0.023l0.035,0.024l0.035,0.023l0.035,0.024l0.035,0.024l0.035,0.025l0.034,0.024l0.035,0.025l0.034,0.024l0.034,0.025l0.034,0.026l0.034,0.025l0.034,0.026l0.033,0.026l0.034,0.026l0.033,0.026l0.033,0.026l0.033,0.027l0.033,0.027l0.032,0.027l0.032,0.027l0.033,0.027l0.032,0.028l0.032,0.028l0.031,0.028l0.032,0.028l0.031,0.028l0.031,0.029l0.032,0.028l0.03,0.029l0.031,0.029l0.031,0.03l0.03,0.029l0.03,0.03l0.03,0.03l0.03,0.03l0.03,0.03l0.029,0.03l0.029,0.031l0.03,0.03l0.028,0.031l0.029,0.031l0.029,0.031l0.028,0.032l0.028,0.031l0.028,0.032l0.028,0.032l0.028,0.032l0.027,0.032l0.028,0.033l0.027,0.032l0.027,0.033l0.026,0.033l0.027,0.033l0.026,0.033l0.026,0.034l0.026,0.033l0.026,0.034l0.025,0.034l0.026,0.034l0.025,0.034l0.025,0.034l0.024,0.035l0.025,0.034l0.024,0.035l0.024,0.035l0.024,0.035l0.008,0.012l0.016,0.024l0.024,0.035l0.023,0.036l0.023,0.036l0.023,0.035l0.022,0.037l0.023,0.036l0.022,0.036l0.022,0.037l0.022,0.036l0.021,0.037l0.022,0.037l0.021,0.037l0.021,0.037l0.02,0.038l0.021,0.037l0.02,0.038l0.02,0.038l0.02,0.037l0.02,0.039l0.019,0.038l0.019,0.038l0.019,0.038l0.019,0.039l0.018,0.039l0.019,0.039l0.018,0.039l0.017,0.039l0.018,0.039l0.017,0.039l0.017,0.04l0.017,0.039l0.017,0.04l0.016,0.04l0.016,0.04l0.016,0.04l0.016,0.04l0.016,0.041l0.015,0.04l0.015,0.041l0.014,0.041l0.015,0.04l0.014,0.041l0.014,0.041l0.014,0.042l0.013,0.041l0.014,0.041l0.013,0.042l0.013,0.041l0.012,0.042l0.012,0.042l0.012,0.042l0.012,0.042l0.012,0.042l0.011,0.042l0.011,0.043l0.011,0.042l0.01,0.043l0.01,0.043l0.01,0.042l0.01,0.043l0.01,0.043l0.009,0.043l0.009,0.043l0.008,0.044l0.009,0.043l0.008,0.044l0.008,0.043l0.007,0.044l0.008,0.043l0.007,0.044l0.007,0.044l0.006,0.044l0.007,0.044l0.006,0.045l0.005,0.044l0.006,0.044l0.005,0.045l0.005,0.044l0.004,0.045l0.005,0.044l0.004,0.045l0.004,0.045l0.003,0.045l0.003,0.045l0.003,0.045l0.003,0.045l0.002,0.045l0.003,0.046l0.001,0.045l0.002,0.045l0.001,0.046l0.001,0.046l0.001,0.045l0,0.046l0,0.058l0,0.058l-0.001,0.059l-0.001,0.058l-0.002,0.058l-0.003,0.058l-0.002,0.058l-0.004,0.058l-0.003,0.058l-0.005,0.058l-0.004,0.058l-0.005,0.057l-0.006,0.058l-0.006,0.058l-0.007,0.057l-0.007,0.058l-0.007,0.057l-0.008,0.058l-0.009,0.057l-0.009,0.057l-0.009,0.057l-0.01,0.057l-0.01,0.057l-0.011,0.057l-0.011,0.057l-0.012,0.057l-0.012,0.056l-0.013,0.057l-0.013,0.056l-0.013,0.056l-0.014,0.057l-0.015,0.056l-0.014,0.055l-0.016,0.056l-0.016,0.056l-0.016,0.055l-0.017,0.056l-0.017,0.055l-0.017,0.055l-0.019,0.055l-0.018,0.055l-0.019,0.055l-0.02,0.054l-0.019,0.055l-0.021,0.054l-0.021,0.054l-0.021,0.054l-0.021,0.054l-0.023,0.054l-0.022,0.053l-0.023,0.054l-0.024,0.053l-0.024,0.053l-0.024,0.052l-0.025,0.053l-0.025,0.052l-0.026,0.053l-0.026,0.052l-0.026,0.052l-0.027,0.051l-0.017,0.032l-0.011,0.02l-0.027,0.051l-0.029,0.051l-0.028,0.049l-0.04,0.059l-0.048,0.053Zm-6.144,-9.902l-0.04,0l-0.04,0.001l-0.04,0.001l-0.04,0.001l-0.04,0.001l-0.04,0.002l-0.04,0.002l-0.04,0.002l-0.04,0.002l-0.04,0.002l-0.039,0.003l-0.04,0.003l-0.039,0.004l-0.04,0.003l-0.039,0.004l-0.039,0.004l-0.04,0.004l-0.039,0.005l-0.039,0.005l-0.039,0.005l-0.039,0.005l-0.039,0.005l-0.038,0.006l-0.039,0.006l-0.039,0.006l-0.038,0.007l-0.039,0.006l-0.038,0.007l-0.038,0.007l-0.039,0.008l-0.038,0.007l-0.038,0.008l-0.038,0.008l-0.038,0.008l-0.037,0.009l-0.038,0.009l-0.038,0.009l-0.037,0.009l-0.038,0.009l-0.037,0.01l-0.025,0.007l-0.013,0.003l-0.037,0.01l-0.037,0.01l-0.037,0.01l-0.037,0.011l-0.037,0.011l-0.037,0.011l-0.037,0.011l-0.036,0.012l-0.037,0.011l-0.036,0.012l-0.036,0.013l-0.037,0.012l-0.036,0.013l-0.036,0.012l-0.036,0.013l-0.036,0.014l-0.035,0.013l-0.036,0.014l-0.036,0.014l-0.035,0.014l-0.036,0.014l-0.035,0.015l-0.035,0.015l-0.035,0.014l-0.035,0.016l-0.035,0.015l-0.034,0.016l-0.035,0.015l-0.035,0.016l-0.034,0.017l-0.034,0.016l-0.034,0.017l-0.034,0.016l-0.034,0.017l-0.034,0.018l-0.034,0.017l-0.034,0.018l-0.033,0.017l-0.033,0.018l-0.034,0.019l-0.033,0.018l-0.033,0.019l-0.033,0.018l-0.033,0.019l-0.032,0.02l-0.033,0.019l-0.032,0.019l-0.032,0.02l-0.033,0.02l-0.032,0.02l-0.013,0.009l-0.019,0.012l-0.031,0.02l-0.032,0.021l-0.032,0.02l-0.031,0.021l-0.031,0.022l-0.032,0.021l-0.031,0.021l-0.031,0.022l-0.03,0.022l-0.031,0.022l-0.031,0.022l-0.03,0.023l-0.03,0.023l-0.03,0.022l-0.03,0.023l-0.03,0.024l-0.03,0.023l-0.029,0.023l-0.03,0.024l-0.029,0.024l-0.029,0.024l-0.029,0.024l-0.029,0.025l-0.029,0.024l-0.028,0.025l-0.029,0.025l-0.028,0.025l-0.028,0.025l-0.028,0.026l-0.028,0.025l-0.028,0.026l-0.027,0.026l-0.027,0.026l-0.028,0.026l-0.027,0.027l-0.026,0.026l-0.027,0.027l-0.027,0.027l-0.026,0.027l-0.026,0.027l-0.026,0.028l-0.026,0.027l-0.026,0.028l-0.026,0.028l-0.025,0.028l-0.025,0.028l-0.026,0.029l-0.024,0.028l-0.025,0.029l-0.025,0.029l-0.024,0.029l-0.025,0.029l-0.024,0.029l-0.004,0.005l-0.02,0.024l-0.023,0.03l-0.024,0.029l-0.023,0.03l-0.024,0.03l-0.023,0.03l-0.023,0.031l-0.023,0.03l-0.022,0.031l-0.023,0.03l-0.022,0.031l-0.022,0.031l-0.022,0.031l-0.021,0.031l-0.022,0.032l-0.021,0.031l-0.021,0.032l-0.021,0.032l-0.021,0.032l-0.02,0.032l-0.021,0.032l-0.02,0.032l-0.02,0.033l-0.02,0.033l-0.019,0.032l-0.02,0.033l-0.019,0.033l-0.019,0.033l-0.019,0.034l-0.019,0.033l-0.018,0.034l-0.018,0.033l-0.018,0.034l-0.018,0.034l-0.018,0.034l-0.017,0.034l-0.018,0.034l-0.017,0.035l-0.017,0.034l-0.016,0.035l-0.017,0.035l-0.016,0.035l-0.016,0.035l-0.016,0.035l-0.015,0.035l-0.016,0.035l-0.015,0.036l-0.015,0.035l-0.015,0.036l-0.014,0.036l-0.015,0.036l-0.014,0.036l-0.014,0.036l-0.013,0.036l-0.014,0.037l-0.013,0.036l-0.013,0.037l-0.013,0.036l-0.013,0.037l-0.012,0.037l-0.012,0.037l-0.012,0.037l-0.012,0.037l-0.012,0.038l-0.011,0.037l-0.011,0.038l-0.011,0.037l-0.01,0.038l-0.011,0.038l-0.01,0.038l-0.01,0.038l-0.01,0.038l-0.009,0.038l-0.009,0.038l-0.009,0.039l-0.009,0.038l-0.009,0.039l-0.008,0.038l-0.008,0.039l-0.008,0.039l-0.007,0.039l-0.008,0.039l-0.007,0.039l-0.007,0.039l-0.006,0.04l-0.007,0.039l-0.006,0.039l-0.006,0.04l-0.006,0.04l-0.005,0.039l-0.005,0.04l-0.005,0.04l-0.005,0.04l-0.004,0.04l-0.004,0.04l-0.004,0.04l-0.004,0.041l-0.003,0.04l-0.004,0.041l-0.002,0.04l-0.003,0.041l-0.003,0.04l-0.002,0.041l-0.002,0.041l-0.001,0.041l-0.002,0.041l-0.001,0.033l0,0.008l-0.001,0.041l0,0.041l-0.001,0.052l0.001,0.053l0,0.052l0.001,0.052l0.001,0.053l0.002,0.052l0.002,0.052l0.003,0.052l0.003,0.052l0.004,0.052l0.004,0.052l0.004,0.052l0.005,0.052l0.005,0.052l0.006,0.052l0.006,0.052l0.006,0.051l0.007,0.052l0.007,0.052l0.008,0.051l0.008,0.052l0.009,0.051l0.009,0.051l0.01,0.051l0.009,0.051l0.011,0.052l0.01,0.05l0.012,0.051l0.011,0.051l0.012,0.051l0.012,0.05l0.013,0.051l0.013,0.05l0.014,0.05l0.014,0.051l0.015,0.05l0.014,0.05l0.002,0.006l0.014,0.043l0.015,0.05l0.017,0.05l0.016,0.049l0.017,0.049l0.018,0.049l0.017,0.05l0.018,0.048l0.019,0.049l0.019,0.049l0.02,0.048l0.019,0.049l0.021,0.048l0.02,0.048l0.021,0.048l0.022,0.048l0.021,0.047l0.023,0.048l0.022,0.047l0.023,0.047l0.024,0.047l0.024,0.047l0.024,0.046l0.024,0.046l0.014,0.025l0.394,0.001l1.821,0.008l0.831,0.001l0.77,0l0.972,-0.007l1.157,-0.018l2.481,-0.073l2.626,-0.141l0.023,-0.045l0.024,-0.044l0.022,-0.045l0.023,-0.046l0.022,-0.045l0.021,-0.045l0.022,-0.046l0.02,-0.046l0.021,-0.046l0.02,-0.046l0.02,-0.047l0.019,-0.046l0.019,-0.047l0.019,-0.046l0.018,-0.047l0.018,-0.047l0.017,-0.047l0.017,-0.048l0.017,-0.047l0.016,-0.048l0.016,-0.047l0.015,-0.048l0.015,-0.048l0.015,-0.048l0.014,-0.049l0.014,-0.048l0.014,-0.048l0.013,-0.049l0.013,-0.048l0.012,-0.049l0.012,-0.049l0.011,-0.049l0.011,-0.049l0.011,-0.049l0.011,-0.049l0.009,-0.05l0.01,-0.049l0.009,-0.05l0.009,-0.049l0.008,-0.05l0.008,-0.05l0.008,-0.05l0.007,-0.049l0.006,-0.05l0.007,-0.05l0.006,-0.051l0.005,-0.05l0.005,-0.05l0.005,-0.05l0.004,-0.051l0.004,-0.05l0.003,-0.051l0.003,-0.05l0.003,-0.051l0.002,-0.05l0.002,-0.051l0.001,-0.051l0.001,-0.05l0.001,-0.051l0,-0.04l0,-0.04l-0.001,-0.04l0,-0.039l-0.001,-0.04l-0.001,-0.04l-0.002,-0.039l-0.002,-0.04l-0.001,-0.039l-0.003,-0.04l-0.002,-0.039l-0.003,-0.039l-0.002,-0.039l-0.004,-0.04l-0.003,-0.039l-0.003,-0.039l-0.004,-0.038l-0.004,-0.039l-0.005,-0.039l-0.004,-0.039l-0.005,-0.038l-0.005,-0.039l-0.005,-0.038l-0.006,-0.039l-0.006,-0.038l-0.006,-0.038l-0.006,-0.038l-0.006,-0.039l-0.007,-0.038l-0.007,-0.037l-0.007,-0.038l-0.007,-0.038l-0.008,-0.038l-0.008,-0.037l-0.008,-0.038l-0.008,-0.037l-0.009,-0.038l-0.008,-0.037l-0.009,-0.037l-0.01,-0.037l-0.009,-0.037l-0.01,-0.037l-0.01,-0.037l-0.01,-0.037l-0.01,-0.036l-0.01,-0.037l-0.011,-0.036l-0.011,-0.037l-0.011,-0.036l-0.012,-0.036l-0.011,-0.036l-0.012,-0.036l-0.012,-0.036l-0.013,-0.036l-0.012,-0.036l-0.013,-0.035l-0.013,-0.036l-0.013,-0.035l-0.013,-0.036l-0.014,-0.035l-0.013,-0.035l-0.014,-0.035l-0.014,-0.035l-0.015,-0.035l-0.014,-0.035l-0.015,-0.034l-0.015,-0.035l-0.015,-0.034l-0.016,-0.034l-0.015,-0.035l-0.016,-0.034l-0.016,-0.034l-0.016,-0.033l-0.017,-0.034l-0.016,-0.034l-0.017,-0.033l-0.017,-0.034l-0.017,-0.033l-0.018,-0.033l-0.017,-0.033l-0.018,-0.033l-0.018,-0.033l-0.018,-0.033l-0.019,-0.032l-0.018,-0.033l-0.019,-0.032l-0.019,-0.032l-0.019,-0.032l-0.019,-0.032l-0.02,-0.032l-0.019,-0.032l-0.02,-0.031l-0.02,-0.032l-0.02,-0.031l-0.014,-0.021l-0.007,-0.01l-0.02,-0.032l-0.021,-0.031l-0.021,-0.03l-0.021,-0.031l-0.022,-0.031l-0.021,-0.03l-0.022,-0.031l-0.021,-0.03l-0.023,-0.03l-0.022,-0.03l-0.022,-0.03l-0.023,-0.029l-0.022,-0.03l-0.023,-0.029l-0.023,-0.029l-0.023,-0.029l-0.024,-0.029l-0.023,-0.029l-0.024,-0.029l-0.024,-0.028l-0.024,-0.029l-0.024,-0.028l-0.025,-0.028l-0.024,-0.028l-0.025,-0.028l-0.025,-0.028l-0.025,-0.027l-0.025,-0.027l-0.026,-0.028l-0.025,-0.027l-0.026,-0.027l-0.026,-0.026l-0.026,-0.027l-0.026,-0.026l-0.027,-0.027l-0.026,-0.026l-0.027,-0.026l-0.027,-0.026l-0.027,-0.025l-0.027,-0.026l-0.027,-0.025l-0.028,-0.025l-0.027,-0.025l-0.028,-0.025l-0.028,-0.025l-0.028,-0.024l-0.028,-0.025l-0.029,-0.024l-0.028,-0.024l-0.029,-0.024l-0.029,-0.023l-0.029,-0.024l-0.029,-0.023l-0.029,-0.023l-0.029,-0.023l-0.03,-0.023l-0.03,-0.023l-0.029,-0.022l-0.03,-0.023l-0.03,-0.022l-0.031,-0.022l-0.03,-0.022l-0.03,-0.021l-0.031,-0.022l-0.031,-0.021l-0.031,-0.021l-0.031,-0.021l-0.031,-0.021l-0.031,-0.02l-0.032,-0.02l-0.031,-0.021l-0.032,-0.02l-0.032,-0.019l-0.032,-0.02l-0.032,-0.019l-0.032,-0.02l-0.032,-0.019l-0.033,-0.019l-0.032,-0.018l-0.033,-0.019l-0.033,-0.018l-0.033,-0.018l-0.033,-0.018l-0.033,-0.018l-0.034,-0.017l-0.033,-0.017l-0.033,-0.017l-0.034,-0.017l-0.034,-0.017l-0.034,-0.017l-0.034,-0.016l-0.034,-0.016l-0.034,-0.016l-0.035,-0.016l-0.034,-0.015l-0.035,-0.015l-0.034,-0.016l-0.035,-0.014l-0.035,-0.015l-0.035,-0.015l-0.035,-0.014l-0.036,-0.014l-0.035,-0.014l-0.035,-0.013l-0.036,-0.014l-0.036,-0.013l-0.035,-0.013l-0.036,-0.013l-0.036,-0.013l-0.036,-0.012l-0.015,-0.005l-0.022,-0.007l-0.036,-0.012l-0.036,-0.012l-0.037,-0.012l-0.036,-0.011l-0.037,-0.011l-0.037,-0.011l-0.036,-0.011l-0.037,-0.01l-0.037,-0.01l-0.038,-0.011l-0.037,-0.009l-0.037,-0.01l-0.038,-0.009l-0.037,-0.009l-0.038,-0.009l-0.037,-0.009l-0.038,-0.009l-0.038,-0.008l-0.038,-0.008l-0.038,-0.008l-0.038,-0.007l-0.038,-0.007l-0.039,-0.008l-0.038,-0.006l-0.039,-0.007l-0.038,-0.006l-0.039,-0.007l-0.038,-0.005l-0.039,-0.006l-0.039,-0.005l-0.039,-0.006l-0.039,-0.005l-0.039,-0.004l-0.04,-0.005l-0.039,-0.004l-0.039,-0.004l-0.04,-0.004l-0.039,-0.003l-0.04,-0.003l-0.039,-0.003l-0.04,-0.003l-0.04,-0.003l-0.04,-0.002l-0.04,-0.002l-0.04,-0.002l-0.04,-0.001l-0.04,-0.001l-0.04,-0.001l-0.041,-0.001l-0.04,-0.001l-0.04,0l-0.041,0Z" style="fill:#fff;"/><g><path d="M1.782,11.926c0,0.088 -0.016,0.169 -0.046,0.243c-0.031,0.074 -0.073,0.138 -0.127,0.192c-0.054,0.053 -0.117,0.095 -0.191,0.125c-0.074,0.031 -0.155,0.046 -0.242,0.046l-0.708,0c-0.019,0 -0.036,-0.004 -0.052,-0.01c-0.016,-0.007 -0.03,-0.016 -0.042,-0.028c-0.012,-0.012 -0.021,-0.026 -0.028,-0.042c-0.007,-0.016 -0.01,-0.034 -0.01,-0.052l0,-1.183c0,-0.018 0.003,-0.035 0.01,-0.051c0.007,-0.017 0.016,-0.031 0.028,-0.043c0.012,-0.012 0.026,-0.021 0.042,-0.028c0.016,-0.007 0.033,-0.01 0.052,-0.01l0.708,0c0.087,0 0.168,0.015 0.242,0.045c0.074,0.031 0.137,0.072 0.191,0.126c0.054,0.053 0.096,0.117 0.127,0.192c0.03,0.074 0.046,0.155 0.046,0.242l0,0.236Zm-0.263,-0.236c0,-0.051 -0.008,-0.098 -0.024,-0.14c-0.017,-0.042 -0.04,-0.079 -0.07,-0.108c-0.031,-0.03 -0.067,-0.054 -0.109,-0.07c-0.042,-0.017 -0.088,-0.025 -0.14,-0.025l-0.578,0l0,0.922l0.578,0c0.052,0 0.098,-0.008 0.14,-0.024c0.042,-0.017 0.078,-0.04 0.109,-0.07c0.03,-0.03 0.053,-0.066 0.07,-0.108c0.016,-0.042 0.024,-0.089 0.024,-0.141l0,-0.236Z" style="fill:#fff;fill-rule:nonzero;"/><path d="M3.971,11.947c0,0.088 -0.015,0.169 -0.046,0.243c-0.03,0.074 -0.072,0.138 -0.126,0.191c-0.054,0.054 -0.117,0.096 -0.191,0.126c-0.074,0.03 -0.154,0.045 -0.241,0.045l-0.355,0c-0.087,0 -0.167,-0.015 -0.241,-0.045c-0.074,-0.03 -0.138,-0.072 -0.192,-0.126c-0.053,-0.053 -0.096,-0.117 -0.126,-0.191c-0.031,-0.074 -0.046,-0.155 -0.046,-0.243l0,-0.277c0,-0.087 0.015,-0.168 0.046,-0.243c0.03,-0.074 0.073,-0.138 0.126,-0.191c0.054,-0.054 0.118,-0.096 0.192,-0.126c0.074,-0.03 0.154,-0.045 0.241,-0.045l0.355,0c0.087,0 0.167,0.015 0.241,0.045c0.074,0.03 0.137,0.072 0.191,0.126c0.054,0.053 0.096,0.117 0.126,0.191c0.031,0.075 0.046,0.156 0.046,0.243l0,0.277Zm-0.263,-0.277c0,-0.052 -0.008,-0.099 -0.024,-0.141c-0.017,-0.042 -0.04,-0.078 -0.07,-0.108c-0.03,-0.03 -0.066,-0.053 -0.108,-0.069c-0.042,-0.017 -0.088,-0.025 -0.139,-0.025l-0.355,0c-0.051,0 -0.097,0.008 -0.139,0.025c-0.043,0.016 -0.079,0.039 -0.109,0.069c-0.03,0.03 -0.054,0.066 -0.07,0.108c-0.017,0.042 -0.025,0.089 -0.025,0.141l0,0.277c0,0.051 0.008,0.098 0.025,0.14c0.016,0.042 0.04,0.078 0.07,0.108c0.03,0.03 0.066,0.053 0.109,0.07c0.042,0.016 0.088,0.025 0.139,0.025l0.353,0c0.051,0 0.098,-0.009 0.14,-0.025c0.042,-0.017 0.078,-0.04 0.109,-0.07c0.03,-0.03 0.053,-0.066 0.07,-0.108c0.016,-0.042 0.024,-0.089 0.024,-0.14l0,-0.277Z" style="fill:#fff;fill-rule:nonzero;"/><path d="M5.939,12.532l-0.947,0c-0.024,0 -0.05,-0.003 -0.078,-0.009c-0.028,-0.006 -0.055,-0.015 -0.083,-0.027c-0.027,-0.012 -0.053,-0.027 -0.078,-0.047c-0.025,-0.019 -0.047,-0.042 -0.066,-0.069c-0.019,-0.027 -0.034,-0.059 -0.046,-0.095c-0.011,-0.036 -0.017,-0.077 -0.017,-0.122l0,-0.71c0,-0.024 0.003,-0.05 0.009,-0.078c0.005,-0.028 0.014,-0.056 0.026,-0.083c0.012,-0.027 0.028,-0.053 0.048,-0.078c0.019,-0.025 0.043,-0.047 0.07,-0.066c0.027,-0.019 0.059,-0.035 0.094,-0.046c0.036,-0.011 0.076,-0.017 0.121,-0.017l0.947,0l0,0.262l-0.947,0c-0.034,0 -0.06,0.009 -0.078,0.027c-0.019,0.019 -0.028,0.046 -0.028,0.081l0,0.708c0,0.034 0.01,0.06 0.028,0.079c0.019,0.018 0.045,0.027 0.078,0.027l0.947,0l0,0.263Z" style="fill:#fff;fill-rule:nonzero;"/><path d="M6.864,11.676l0.922,0l0,-0.591l0.262,0l0,1.447l-0.262,0l0,-0.592l-0.922,0l0,0.592l-0.262,0l0,-1.447l0.262,0l0,0.591Z" style="fill:#fff;fill-rule:nonzero;"/><path d="M10.187,12.532l-0.262,0l0,-0.355l-0.922,0l0,0.355l-0.262,0l0,-0.724c0,-0.105 0.018,-0.203 0.054,-0.291c0.036,-0.089 0.087,-0.165 0.151,-0.229c0.065,-0.064 0.141,-0.114 0.229,-0.15c0.089,-0.035 0.185,-0.053 0.289,-0.053l0.591,0c0.018,0 0.035,0.003 0.052,0.01c0.016,0.007 0.03,0.016 0.042,0.028c0.012,0.012 0.022,0.026 0.028,0.043c0.007,0.016 0.01,0.033 0.01,0.051l0,1.315Zm-1.184,-0.618l0.922,0l0,-0.567l-0.461,0c-0.008,0 -0.025,0.001 -0.051,0.004c-0.026,0.002 -0.056,0.008 -0.09,0.017c-0.034,0.01 -0.07,0.024 -0.107,0.044c-0.038,0.019 -0.073,0.046 -0.104,0.081c-0.032,0.034 -0.058,0.077 -0.078,0.128c-0.021,0.052 -0.031,0.114 -0.031,0.187l0,0.106Z" style="fill:#fff;fill-rule:nonzero;"/><path d="M12.213,11.347l-0.578,0l0,1.185l-0.263,0l0,-1.185l-0.579,0l0,-0.262l1.42,0l0,0.262Z" style="fill:#fff;fill-rule:nonzero;"/><path d="M14.317,11.947c0,0.088 -0.015,0.169 -0.045,0.243c-0.031,0.074 -0.073,0.138 -0.127,0.191c-0.053,0.054 -0.117,0.096 -0.191,0.126c-0.073,0.03 -0.154,0.045 -0.24,0.045l-0.355,0c-0.087,0 -0.168,-0.015 -0.242,-0.045c-0.074,-0.03 -0.137,-0.072 -0.191,-0.126c-0.054,-0.053 -0.096,-0.117 -0.127,-0.191c-0.031,-0.074 -0.046,-0.155 -0.046,-0.243l0,-0.277c0,-0.087 0.015,-0.168 0.046,-0.243c0.031,-0.074 0.073,-0.138 0.127,-0.191c0.054,-0.054 0.117,-0.096 0.191,-0.126c0.074,-0.03 0.155,-0.045 0.242,-0.045l0.355,0c0.086,0 0.167,0.015 0.24,0.045c0.074,0.03 0.138,0.072 0.191,0.126c0.054,0.053 0.096,0.117 0.127,0.191c0.03,0.075 0.045,0.156 0.045,0.243l0,0.277Zm-0.262,-0.277c0,-0.052 -0.009,-0.099 -0.025,-0.141c-0.017,-0.042 -0.04,-0.078 -0.07,-0.108c-0.03,-0.03 -0.066,-0.053 -0.108,-0.069c-0.042,-0.017 -0.088,-0.025 -0.138,-0.025l-0.355,0c-0.052,0 -0.098,0.008 -0.14,0.025c-0.042,0.016 -0.078,0.039 -0.109,0.069c-0.03,0.03 -0.053,0.066 -0.07,0.108c-0.016,0.042 -0.024,0.089 -0.024,0.141l0,0.277c0,0.051 0.008,0.098 0.024,0.14c0.017,0.042 0.04,0.078 0.07,0.108c0.031,0.03 0.067,0.053 0.109,0.07c0.042,0.016 0.088,0.025 0.14,0.025l0.353,0c0.051,0 0.097,-0.009 0.139,-0.025c0.042,-0.017 0.079,-0.04 0.109,-0.07c0.03,-0.03 0.053,-0.066 0.07,-0.108c0.016,-0.042 0.025,-0.089 0.025,-0.14l0,-0.277Z" style="fill:#fff;fill-rule:nonzero;"/></g></svg>